<svg xmlns="http://www.w3.org/2000/svg" width="353.333" height="353.333" preserveAspectRatio="xMidYMid meet" version="1.0" viewBox="0 0 265 265"><g fill="#000" stroke="none"><path d="M1198 2645 c-2 -1 -25 -5 -53 -9 -213 -26 -444 -123 -627 -263 -69 -52 -183 -164 -224 -219 -16 -21 -32 -41 -35 -44 -11 -10 -79 -120 -79 -129 0 -5 -4 -11 -8 -13 -11 -4 -70 -129 -93 -197 -25 -71 -55 -191 -65 -256 -22 -148 -5 -410 34 -533 6 -18 11 -36 11 -40 2 -13 12 -46 21 -67 10 -25 23 -58 24 -65 5 -20 91 -180 97 -180 5 0 9 -5 9 -12 0 -31 167 -225 269 -312 171 -146 440 -264 666 -293 150 -19 440 -2 498 28 9 5 17 8 17 5 0 -8 162 50 235 84 63 30 203 113 215 129 3 3 23 19 45 35 111 81 264 267 342 416 108 205 153 404 148 650 -3 127 -6 156 -27 245 -7 28 -13 52 -13 55 -8 41 -19 77 -25 85 -4 6 -10 23 -14 39 -19 77 -143 293 -220 383 -38 45 -142 149 -181 182 -96 81 -269 178 -403 225 -76 27 -87 30 -197 52 -59 12 -357 28 -367 19z" transform="translate(0.000000,265.000000) scale(0.100000,-0.100000)"/></g></svg>