<svg width="427" height="576" viewBox="0 0 427 576" fill="none" xmlns="http://www.w3.org/2000/svg">
<g clip-path="url(#clip0_328_1821)">
<path d="M156.571 575.571V570.884L180.854 546.603V452.155L165.896 437.199H122.115L109.857 424.942H96.421V415.814H113.342L125.404 427.875H157.197L139.38 410.06H96.421L78.6288 392.269L80.7639 390.135L97.8321 407.201H117.416L108.25 398.036L110.36 395.926L119.919 405.483H134.337L103.832 374.995H67.7081L65.3031 372.59L51.8792 386H31.682V382.196H50.7871L62.5913 370.394L56.7751 364.578H39.5106L17.252 342.322L24.2584 335.316L43.5353 354.579H52.0387L45.6458 348.174V330.715H48.284V347.426L55.8058 354.947H60.3949L72.4077 366.946H94.9608L80.9111 352.91L88.4329 345.389L101.292 358.235V336.457H104.777V362.566L136.938 394.723V369.976L119.293 352.333V326.433H127.858V347.732L136.153 356.039L143.368 348.837V342.199H147.589V349.929L139.552 357.965L145.662 364.075V404.858L154.46 413.655V398.797H158.031V407.667L170.67 395.042V380.417H174.228L174.437 397.337L157.098 415.605L172.707 431.224L178.866 425.053V418.525H181.848V426.672L174.952 433.567L190.72 449.333V551.143L168.694 573.178V576L156.571 575.571Z" fill="#795030"/>
<path d="M187.492 575.154V571.092L196.584 562.001V386.81L160.399 350.628V324.949L142.889 307.441V292.754H101.734L91.9418 302.545L89.6718 300.275L97.0709 292.877H54.0384L34.5897 273.43L37.5469 270.474L56.1121 289.037H73.4625L64.8609 280.448L67.6218 277.688L78.702 288.767H135.563L115.243 268.437H112.151L103.746 276.841L101.893 274.976L108.2 268.682V266.29H81.9905L66.1371 250.426L71.8919 244.672L84.3464 257.125H92.9603L89.2792 253.444V244.672H92.6535V253.37L96.6046 257.321H117.244L151.687 291.761V304.189L160.35 312.851V265.971L133.428 239.065L127.968 244.524H119.44V241.702H127.035L131.146 237.592L115.796 222.244H69.3887L65.2904 218.146H41.0317L30.7245 207.84L32.8473 205.717L41.8906 214.759H62.186L57.6827 210.257L59.9037 208.024L69.8182 217.925H85.6716L50.4186 182.675H36.4916L25.0801 171.265L27.8409 168.517L38.369 179.044H46.8233L44.0502 176.271V158.996H53.8052V175.13L87.365 208.686V174.664L76.9228 164.223L78.8615 162.284L87.4754 170.909V151.794L69.9777 134.286L71.8551 132.409L87.2055 147.757V121.097H89.046V193.62L98.0157 184.651L100.396 187.031L89.5982 197.84L89.3528 211.079L92.494 214.207H121.624L127.183 219.765L132.434 214.526V206.146H135.956V215.311L129.22 222.047L160.202 253.015L160.141 209.692L122.127 171.682L127.035 166.775L136.852 176.59V148.187L118.213 129.55L119.882 127.881L138.889 146.886V178.479L160.055 199.644V149.34L146.361 135.648V125.219H148.963V134.519L160.19 145.733V117.698L143.711 101.233H93.3039L81.8555 89.7857L84.69 86.9515L95.0217 97.2944H113.661L105.906 89.5403L108.127 87.3196L118.102 97.2944H139.036L127.109 85.3565H119.305L99.0833 65.137L105.881 58.3399L123.747 76.1915H130.999L144.288 89.479V73.0138L133.723 62.45L135.956 60.2171L143.944 68.2043V48.4755L127.134 31.6667L129.33 29.4706L142.643 42.7826L147.601 37.8258L150.632 40.8563L145.981 45.4941L148.337 47.8497V93.3683L159.564 104.595V70.5109H169.221V135.145L175.798 128.556V101.417L183.21 93.994V80.0072L186.952 76.2774L186.4 48.2669L180.522 42.39L182.118 40.795L186.449 45.126V23.52L204.904 5.05493L208.83 8.98106L191.149 26.6486V43.8745L198.253 36.783L201.051 39.5681L190.572 50.0337V71.7623L223.604 38.7338V27.0658L232.598 18.0725L239.862 25.3481L233.334 31.8753V43.1507L220.549 55.9351H232.709L242.5 46.1443L245.556 49.1993L234.537 60.2171H214.855L191.59 83.4794V92.3254H197.002L207.186 82.142L209.419 84.3873L201.578 92.215H218.303L235.739 74.7805L238.721 77.7619L220.34 96.1411H190.216L183.455 102.901V133.047L168.608 147.892V197.264L180.976 184.896V170.431H183.001V182.025L196.633 168.394V144.543H200.756V170.848L168.755 202.858V285.295L177.393 276.657V250.831L186.572 241.666L180.915 236.01V226.084H184.989V234.439L189.639 239.089L195.173 233.556V207.815H204.204V237.887L187.234 254.855V269.32L194.523 262.032L198.413 265.922L187.345 276.988V282.375L168.669 301.036V348.469L174.117 353.904L192.609 335.414V309.097H198.253V337.402L179.038 356.615L192.817 370.394L198.769 364.443V359.744H202.842V366.848L196.523 373.166L204.671 381.301V564.406L197.026 572.049V576H187.394L187.492 575.154Z" fill="#795030"/>
<path d="M222.034 576V571.448L212.242 561.657V370.185L231.949 350.493L223.138 341.684V338.543L217.727 333.144L219.298 331.574L223.286 335.574V324.605L213.383 314.704V300.018H221.249V310.986L231.691 321.415V337.917L237.667 343.904L247.728 333.844V325.709L236.525 314.508V308.471H238.955V313.489L246.784 321.317V281.688L235.2 270.105V264.781L218.046 247.628V231.728H219.69V245.506L235.114 260.94V252.094H237.384V268.069L246.477 277.148V239.396L230.501 223.421V211.986L223.838 205.337L226.034 203.14L230.881 207.999V182.393L219.494 170.995V145.267L208.463 134.249V122.09H216.242V130.078L227.887 141.721V156.395L237.102 147.181V120.213H238.955V148.089L228.218 158.812V166.726L239.544 178.038V217.949L248.097 226.501V164.063H255.716V191.166L266.686 180.197V163.597L274.355 155.916V117.072L264.171 106.889L265.975 105.098L274.515 113.625V68.6828L293.387 49.8005L296.442 52.8556L278.736 70.5599V87.3196L285.865 80.1912L288.454 82.78L278.503 92.718V152.788L292.332 138.96V112.066L301.044 103.355L308.344 110.656L302.001 116.999V134.617H311.326L315.241 130.703L317.83 133.292L313.204 137.905H300.982V144.801L277.178 168.603V172.995H287.988L292.921 168.063L295.89 171.032L289.779 177.142H277.018V182.393L257.434 201.963V279.97L269.496 267.909V243.322L273.496 239.322V230.783L269.3 226.599L271.14 224.759L275.374 228.992V238.144L285.988 227.532V221.385H293.779V230.783L278.981 245.592V259.763L311.756 226.992V201.963L301.596 191.804L304.59 188.81L311.486 195.705V154.039L330.824 134.691L334.112 137.991L317.437 154.665V172.05L324.407 165.082L326.517 167.192L317.204 176.516V221.704L335.487 203.423V189.755L355.991 169.253L362.629 175.891L343.745 193.975V204.785H348.923L358.469 195.227L361.132 197.902L353.696 205.337H371.476L388.593 188.221L391.452 191.08L373.587 208.944H342.493L317.547 233.875H344.064L348.432 229.519L351.586 232.672L346.727 237.519H313.523L273.803 277.222L281.951 285.368H288.135V288.742H280.147L271.533 280.129L256.342 295.319V339.021L222.034 373.314V556.578L230.807 565.338V576H222.034Z" fill="#795030"/>
<path d="M253.814 576V573.693L227.175 547.069V450.069L245.924 431.322V423.961L232.009 410.047V392.429H233.335V408.502L246.182 421.347V390.969L256.992 380.16V366.737L262.195 361.547L263.974 363.327L259.581 367.707V376.553L285.104 351.045V348.358L269.042 332.298V316.618H272.391V331.243L285.325 344.162V326.225H293.914V355.671L254.955 394.625V423.335L313.596 364.701L305.914 357.032V350.039H309.78V356.088L316.05 362.357L319.805 358.591V332.077L330.038 321.845L305.19 296.987V268.376H307.485V294.484L330.774 317.771V287.38L340.124 278.031V271.087H348.628V282.375L340.382 290.62V315.575L350.984 304.974V300.324H355.315V306.803L339.965 322.151V327.267L328.21 339.021V349.818L351.892 326.151L359.181 333.427L319.498 373.105H355.524L381.476 347.156V333.12L399.305 315.293V306.385H408.569V318.704L391.452 335.831V351.29L381.427 361.314H403.771V370.504H368.052L357.512 381.043H309.154L283.828 406.367H316.676L327.67 417.36L322.786 422.243L314.013 413.471H276.367L236.341 453.48V545.082L262.514 571.252V576H253.814Z" fill="#795030"/>
</g>
<defs>
<clipPath id="clip0_328_1821">
<rect width="427" height="576" fill="white"/>
</clipPath>
</defs>
</svg>
