<svg width="1920" height="161" viewBox="0 0 1920 161" fill="none" xmlns="http://www.w3.org/2000/svg">
<path fill-rule="evenodd" clip-rule="evenodd" d="M1154.81 26.628C1093.15 -8.90744 915.573 1.38466 915.573 1.38466V1.38824C902.688 1.47754 734.729 3.7772 629 62.9996C601.748 74.5937 577.83 74.4926 553.529 74.3898C522.334 74.258 490.508 74.1235 450.187 98.7233C378.455 142.486 246.032 149.256 222.583 149.256C199.135 149.256 73.6089 174.512 39.1207 201.438C4.63258 228.385 -62.957 273.841 -80.8944 277.204C-98.8319 280.567 -167 428.736 -167 428.736L182.584 435.462L705.399 428.736L915.573 448.103V448.176L915.967 448.139L916.36 448.176V448.103L1126.53 428.736L1649.35 435.462L2001 428.736C2001 428.736 1930.76 280.567 1912.83 277.204C1894.89 273.841 1827.3 228.385 1792.81 201.438C1758.32 174.512 1632.8 149.256 1609.35 149.256C1585.9 149.256 1453.48 142.486 1381.75 98.7233C1338.91 72.5874 1288.49 61.3986 1241.58 50.9856C1209.93 43.9627 1179.88 37.2926 1154.81 26.628Z" fill="#7D1E00"/>
</svg>
