<svg width="1920" height="205" viewBox="0 0 1920 205" fill="none" xmlns="http://www.w3.org/2000/svg">
<path d="M1941 253.299V16.0343C1941 16.0343 1793.2 58.2365 1720.75 30.5934C1648.31 2.9503 1378.07 127.398 1354.9 109.204C1354.9 109.204 1366.49 74.2707 1396.18 63.346C1396.18 63.346 1346.92 66.2536 1320.12 85.1741L1310.69 92.4429C1310.69 92.4429 1294.75 63.3247 1330.25 12.3785C1330.25 12.3785 1294.75 33.4796 1283.88 65.5053C1283.88 65.5053 1264.32 13.8322 1201.28 0C1201.28 0 1245.49 30.572 1253.45 88.0603C1253.45 88.0603 1241.12 53.1269 1207.8 42.9291C1207.8 42.9291 1230.97 72.0473 1226.63 90.2409C1226.63 90.2409 1165.04 64.0302 1121.58 91.6947C1121.58 91.6947 1178.09 91.6946 1202.01 113.523C1202.01 113.523 1149.29 121.155 1104.2 141.358C1059.1 161.561 1025.41 121.711 965.629 118.974C905.848 116.238 687.432 135.885 673.833 152.817C673.833 152.817 687.964 124.982 680.345 108.605C680.345 108.605 672.194 146.275 658.063 147.9C658.063 147.9 645.017 117.884 649.358 88.4023C649.358 88.4023 643.931 129.878 620.564 141.358C620.564 141.358 604.262 148.99 603.177 144.629C603.177 144.629 620.564 120.62 615.669 104.244C615.669 104.244 605.347 121.711 593.387 126.628C593.387 126.628 597.196 77.499 589.578 54.5807C589.578 54.5807 581.98 122.267 564.039 127.718C564.039 127.718 546.099 122.267 562.4 46.927C562.4 46.927 529.265 76.9431 529.797 111.342C529.797 111.342 506.982 88.4236 505.897 62.213C505.897 62.213 498.299 112.967 504.258 125.538C504.258 125.538 476.549 96.6118 429.282 117.349C429.282 117.349 458.077 112.988 476.017 150.637C476.017 150.637 376.588 153.908 345.602 167.013C345.602 167.013 351.582 143.004 330.938 128.809C330.938 128.809 298.888 82.4162 277.691 84.041C256.494 85.6872 243.448 99.8614 243.448 110.786C243.448 110.786 141.849 106.425 86.4093 76.9431C30.9699 47.4615 49.4639 104.244 36.4181 120.62C23.3723 136.997 -19 124.447 -19 124.447L-15.1905 262L1941 253.299Z" fill="#581601"/>
</svg>
