<svg width="1920" height="332" viewBox="0 0 1920 332" fill="none" xmlns="http://www.w3.org/2000/svg">
<path d="M-6.01706 474L-12 17.9884C-12 17.9884 31.4987 13.0747 52.6839 8.71646C73.869 4.35823 152.158 -3.29001 196.189 9.80604C240.22 22.9021 291.32 39.2668 291.32 39.2668C291.32 39.2668 300.028 11.9851 295.664 3.80276C291.299 -4.37959 312.143 14.8906 315.422 22.9021C318.68 30.8921 324.854 0 324.854 0C324.854 0 330.199 12.0065 331.284 22.0903C331.284 22.0903 354.514 5.72554 355.195 1.08958C355.195 1.08958 358.452 13.9079 358.048 22.2184C358.048 22.2184 378.488 17.4543 384.641 8.71646C384.641 8.71646 384.641 23.6285 379.574 33.0713C379.574 33.0713 418.346 23.2439 419.794 7.24235C419.794 7.24235 429.226 24.6966 429.588 37.7927C429.588 37.7927 442.277 14.1643 455.329 5.42644C455.329 5.42644 453.519 39.9718 457.501 45.0564C457.501 45.0564 517.671 36.7031 566.216 41.7877C614.782 46.8723 734.377 96.3297 772.063 110.152C809.749 123.975 995.305 169.779 1094.61 129.785C1193.91 89.7923 1223.64 111.605 1223.64 111.605C1223.64 111.605 1309.89 152.324 1346.13 176.337C1382.37 200.329 1393.97 229.427 1462.83 232.332C1462.83 232.332 1522.25 218.51 1539.67 209.067C1557.06 199.603 1645.49 190.886 1645.49 190.886L1809.73 195.907L1951 228.166V465.262L-6.01706 474Z" fill="#B54415"/>
</svg>
