<svg width="409" height="408" viewBox="0 0 409 408" fill="none" xmlns="http://www.w3.org/2000/svg">
<path d="M165.023 96.8555C134.855 96.8555 104.871 109.247 83.5393 130.527C70.0995 143.933 60.2067 160.766 54.7203 178.91C41.5335 181.393 29.0792 187.814 19.5829 197.287C7.20542 209.634 0 226.983 0 244.445C0 261.907 7.20542 279.262 19.5829 291.609C31.9606 303.956 49.358 311.144 66.8625 311.144H366.322C377.495 311.144 388.601 306.558 396.502 298.677C404.403 290.796 409 279.716 409 268.57C409 257.424 404.403 246.351 396.502 238.469C388.65 230.636 377.631 226.064 366.527 226.007C364.36 205.813 355.189 186.376 340.781 172.003C324.19 155.452 300.872 145.815 277.409 145.815C271.712 145.815 266.028 146.398 260.443 147.495C256.356 141.411 251.701 135.709 246.506 130.527C225.174 109.247 195.19 96.8555 165.023 96.8555Z" fill="white"/>
</svg>
