<svg width="221" height="195" viewBox="0 0 221 195" fill="none" xmlns="http://www.w3.org/2000/svg">
<path d="M125.556 37.7451C113.755 37.7451 102.025 42.5742 93.6804 50.867C88.4228 56.0917 84.5527 62.6512 82.4065 69.7223C77.2478 70.6901 72.3757 73.1921 68.6608 76.8838C63.8187 81.6956 61 88.4567 61 95.2616C61 102.067 63.8187 108.83 68.6608 113.642C73.5029 118.453 80.3087 121.255 87.1565 121.255H204.304C208.675 121.255 213.02 119.467 216.111 116.396C219.202 113.325 221 109.007 221 104.663C221 100.32 219.202 96.0043 216.111 92.9329C213.039 89.8803 208.728 88.0983 204.385 88.0764C203.537 80.2065 199.949 72.6316 194.313 67.0306C187.823 60.5807 178.701 56.8251 169.522 56.8251C167.293 56.8251 165.07 57.0522 162.885 57.4797C161.286 55.1087 159.465 52.8866 157.433 50.867C149.088 42.5742 137.358 37.7451 125.556 37.7451V37.7451Z" fill="#F8F8F8"/>
<path d="M78.6782 47.0537C64.2952 47.0537 49.9996 52.9458 39.8293 63.064C33.4215 69.4388 28.7049 77.4423 26.0892 86.0699C19.802 87.2507 13.8642 90.3035 9.33661 94.8078C3.43535 100.679 0 108.928 0 117.231C0 125.534 3.43535 133.786 9.33661 139.657C15.2379 145.528 23.5325 148.946 31.8782 148.946H174.652C179.979 148.946 185.274 146.765 189.041 143.018C192.808 139.27 195 134.002 195 128.702C195 123.403 192.808 118.137 189.041 114.39C185.298 110.665 180.044 108.491 174.75 108.464C173.717 98.862 169.344 89.6197 162.475 82.7856C154.565 74.916 143.448 70.3337 132.261 70.3337C129.545 70.3337 126.835 70.6108 124.172 71.1324C122.223 68.2394 120.004 65.5283 117.527 63.064C107.357 52.9458 93.0613 47.0537 78.6782 47.0537V47.0537Z" fill="white"/>
</svg>
