<svg width="488" height="658" viewBox="0 0 488 658"  fill="none" xmlns="http://www.w3.org/2000/svg">
<path d="M311.123 274.836L307.996 277.962V306.049L294.211 319.827V230.728L316.592 208.359V202.36H331.176L335.075 198.464C335.678 198.632 336.309 198.744 336.968 198.744C340.923 198.744 344.134 195.535 344.134 191.582C344.134 187.63 340.923 184.42 336.968 184.42C333.013 184.42 329.802 187.63 329.802 191.582C329.802 193.096 330.279 194.498 331.078 195.661L329.129 197.609H316.774V192.605L343.98 165.415V157.538H357.947L360.345 155.141C361.453 155.842 362.771 156.277 364.187 156.277C368.142 156.277 371.353 153.067 371.353 149.114C371.353 145.162 368.142 141.952 364.187 141.952C360.233 141.952 357.021 145.162 357.021 149.114C357.021 150.138 357.246 151.091 357.624 151.974L355.815 153.782H345.158V133.655L349.463 129.352C351.188 130.081 353.067 130.487 355.058 130.487C362.981 130.487 369.404 124.068 369.404 116.149C369.404 108.23 362.981 101.811 355.058 101.811C347.135 101.811 340.712 108.23 340.712 116.149C340.712 117.733 340.979 119.247 341.456 120.676L334.107 128.021V158.757L318.303 174.553V105.932L326.408 97.8306C327.685 99.0079 329.381 99.7368 331.246 99.7368C335.201 99.7368 338.412 96.5271 338.412 92.5747C338.412 88.6222 335.201 85.4126 331.246 85.4126C327.292 85.4126 324.081 88.6222 324.081 92.5747C324.081 93.0933 324.137 93.5978 324.249 94.0884L318.583 99.7508V80.6052L334.233 64.9635C335.411 65.8185 336.856 66.3371 338.426 66.3371C342.381 66.3371 345.592 63.1275 345.592 59.175C345.592 55.2226 342.381 52.0129 338.426 52.0129C334.472 52.0129 331.261 55.2226 331.261 59.175C331.261 59.7216 331.331 60.2542 331.457 60.7588L313.759 78.4467V129.801L307.126 123.171C308.178 121.924 308.837 120.326 308.837 118.574C308.837 114.622 305.626 111.412 301.671 111.412C297.717 111.412 294.505 114.622 294.505 118.574C294.505 122.526 297.717 125.736 301.671 125.736C302.807 125.736 303.859 125.456 304.812 124.979L313.577 133.739V178.113L304.798 186.887V205.85L292.261 218.381V196.754H296.609V165.415H279.037V196.754H283.553V258.746L273.779 248.977V203.398L261.101 190.727H260.372V168.54H260.456V161.911L247.148 148.61V144.167C252.94 142.331 257.147 136.907 257.147 130.501C257.147 122.583 250.724 116.163 242.801 116.163C234.878 116.163 228.455 122.583 228.455 130.501C228.455 136.837 232.564 142.191 238.257 144.097V153.375L250.85 165.961V195.353L263.878 208.373V237.624L260.05 233.798C260.583 232.677 260.695 231.373 260.274 230.098C259.405 227.491 256.572 226.103 253.978 226.972C251.369 227.841 249.981 230.672 250.85 233.265C251.72 235.872 254.553 237.26 257.147 236.391C257.273 236.349 257.371 236.279 257.483 236.237L263.429 242.179V255.242L281.688 273.491V321.439L282.052 321.803V367.074L273.106 358.132V354.096C275.63 353.339 277.467 351.026 277.467 348.265C277.467 344.887 274.732 342.154 271.353 342.154C267.973 342.154 265.238 344.887 265.238 348.265C265.238 351.292 267.44 353.787 270.329 354.278V359.295L283.132 372.092V381.398L271.647 392.877L264.804 386.038V367.186L252.87 355.259V344.831C257.526 342.925 260.807 338.37 260.807 333.03C260.807 325.98 255.099 320.275 248.046 320.275C240.992 320.275 235.284 325.98 235.284 333.03C235.284 338.608 238.874 343.345 243.867 345.069V359.506L255.184 370.816V383.347L251.481 379.646C252.042 378.721 252.379 377.642 252.379 376.493C252.379 373.115 249.644 370.382 246.265 370.382C242.885 370.382 240.151 373.115 240.151 376.493C240.151 379.871 242.885 382.604 246.265 382.604C247.569 382.604 248.761 382.197 249.757 381.496L255.001 386.738V390.312L265.07 400.376L242.563 422.871V567.318H233.91V435.583L224.599 426.277L231.821 419.059V412.065C233.882 410.804 235.27 408.561 235.27 405.968C235.27 402.016 232.059 398.806 228.104 398.806C224.15 398.806 220.939 402.016 220.939 405.968C220.939 409.598 223.659 412.57 227.165 413.032V416.312L220.364 423.109L204.615 407.37L226.576 385.421V354.025C228.371 352.722 229.549 350.62 229.549 348.237C229.549 344.285 226.338 341.075 222.383 341.075C218.428 341.075 215.217 344.285 215.217 348.237C215.217 351.405 217.278 354.054 220.139 355.007V383.164L199.006 404.286L192.78 398.063V343.878L214.109 322.56V316.421L226.758 303.779L226.534 303.555C227.529 303.765 228.581 303.737 229.605 303.386C232.704 302.349 234.359 298.999 233.321 295.902C232.283 292.804 228.932 291.151 225.833 292.188C222.776 293.211 221.135 296.491 222.088 299.546L213.983 307.647V291.123L233.377 271.739V239.586C238.482 237.386 242.072 232.326 242.072 226.412C242.072 218.493 235.649 212.073 227.726 212.073C219.803 212.073 213.38 218.493 213.38 226.412C213.38 232.691 217.433 238.017 223.056 239.965V266.805L216.731 273.126L211.417 267.814V261.059C212.987 259.783 213.702 257.639 213.015 255.621C212.146 253.014 209.313 251.626 206.719 252.495C204.11 253.364 202.722 256.195 203.592 258.788C204.11 260.33 205.316 261.437 206.761 261.914V269.608L213.226 276.07L202.736 286.553V316.043L192.864 325.91V231.738L192.695 225.36V168.961L209.664 152.002V117.565L217.391 109.842H251.818L270.006 91.6637C271.03 92.2383 272.208 92.5887 273.47 92.5887C277.425 92.5887 280.636 89.3791 280.636 85.4266C280.636 81.4742 277.425 78.2645 273.47 78.2645C269.516 78.2645 266.304 81.4742 266.304 85.4266C266.304 86.3517 266.5 87.2347 266.809 88.0476L249.49 105.357H230.376L237.318 98.4193C238.496 99.2462 239.912 99.7508 241.455 99.7508C245.409 99.7508 248.621 96.5412 248.621 92.5887C248.621 88.6362 245.409 85.4266 241.455 85.4266C237.5 85.4266 234.289 88.6362 234.289 92.5887C234.289 93.6819 234.555 94.7051 234.99 95.6301L225.131 105.483H218.961V95.3778L245.55 68.8039H268.043L278.14 58.7125C278.925 59.0068 279.753 59.189 280.636 59.189C284.591 59.189 287.802 55.9794 287.802 52.027C287.802 48.0745 284.591 44.8649 280.636 44.8649C276.681 44.8649 273.47 48.0745 273.47 52.027C273.47 53.2884 273.821 54.4517 274.396 55.4889L265.954 63.9264H252.042L266.669 49.3079V36.4274L272.012 31.0873C273.737 31.8162 275.63 32.2366 277.635 32.2366C285.558 32.2366 291.981 25.8174 291.981 17.8985C291.981 9.97954 285.558 3.5603 277.635 3.5603C269.712 3.5603 263.289 9.97954 263.289 17.8985C263.289 19.4963 263.556 21.024 264.046 22.4536L255.548 30.9472V44.2762L217.797 81.9927V57.1848L227.67 47.3317C228.693 47.8923 229.843 48.2287 231.077 48.2287C235.032 48.2287 238.243 45.0191 238.243 41.0666C238.243 37.1141 235.032 33.9045 231.077 33.9045C227.123 33.9045 223.911 37.1141 223.911 41.0666C223.911 42.1318 224.164 43.1269 224.571 44.0379L218.456 50.1488V30.4706L235.256 13.6797C236.168 14.1002 237.178 14.3525 238.243 14.3525C242.198 14.3525 245.409 11.1429 245.409 7.1904C245.409 3.23794 242.198 0.0283203 238.243 0.0283203C234.289 0.0283203 231.077 3.23794 231.077 7.1904C231.077 7.723 231.148 8.24158 231.26 8.73213L213.085 26.8966V51.5925L210.617 49.1257C210.968 48.2707 211.08 47.3176 210.87 46.3506C210.323 43.8277 207.827 42.2299 205.302 42.7765C202.778 43.3231 201.18 45.818 201.726 48.3408C202.273 50.8636 204.77 52.4614 207.294 51.9148C207.939 51.7747 208.514 51.5084 209.005 51.158L213.015 55.1665L213.646 87.1646L209.383 91.4254V107.403L200.913 115.869V146.886L193.397 154.398L193.172 130.824L169.529 106.675V54.6619L166.85 51.9709L171.801 47.0233C172.922 47.7661 174.269 48.2006 175.727 48.2006C179.682 48.2006 182.893 44.991 182.893 41.0386C182.893 37.0861 179.682 33.8765 175.727 33.8765C171.772 33.8765 168.561 37.0861 168.561 41.0386C168.561 41.9216 168.743 42.7485 169.038 43.5334L168.715 43.211L163.05 48.8734L150.092 35.9228C150.751 34.8436 151.158 33.5681 151.158 32.2086C151.158 28.2561 147.947 25.0465 143.992 25.0465C140.038 25.0465 136.826 28.2561 136.826 32.2086C136.826 36.1611 140.038 39.3707 143.992 39.3707C145.296 39.3707 146.502 38.9923 147.554 38.3896L164.536 55.3627V77.9141L157.721 71.1025C158.1 70.2195 158.324 69.2524 158.324 68.2292C158.324 64.2768 155.113 61.0671 151.158 61.0671C147.204 61.0671 143.992 64.2768 143.992 68.2292C143.992 72.1817 147.204 75.3913 151.158 75.3913C152.771 75.3913 154.257 74.8307 155.449 73.9337L164.915 83.3943V102.218L149.728 87.0384H141.44L122.256 67.8648C123.35 65.8465 123.967 63.5339 123.967 61.0671C123.967 53.1482 117.544 46.729 109.621 46.729C101.698 46.729 95.2749 53.1482 95.2749 61.0671C95.2749 68.9861 101.698 75.4053 109.621 75.4053C111.023 75.4053 112.383 75.1951 113.674 74.8167L136.377 97.5082H145.296L158.927 111.132H135.003L126.182 102.316C126.87 101.208 127.29 99.919 127.29 98.5174C127.29 94.5649 124.079 91.3553 120.124 91.3553C116.17 91.3553 112.958 94.5649 112.958 98.5174C112.958 102.47 116.17 105.679 120.124 105.679C121.372 105.679 122.536 105.329 123.56 104.768L129.913 111.118H108.611L99.0752 101.587C99.524 100.648 99.7904 99.6246 99.7904 98.5174C99.7904 94.5649 96.5791 91.3553 92.6245 91.3553C88.6699 91.3553 85.4585 94.5649 85.4585 98.5174C85.4585 102.47 88.6699 105.679 92.6245 105.679C93.8024 105.679 94.8963 105.371 95.8779 104.867L106.648 115.631H164.27L183.103 134.454V166.48L170.272 153.656V148.512C172.796 147.405 174.577 144.896 174.577 141.952C174.577 138 171.366 134.79 167.411 134.79C163.457 134.79 160.245 138 160.245 141.952C160.245 145.905 163.401 149.044 167.313 149.1V154.959L182.963 170.601V228.065L158.759 203.874V167.798L140.122 149.171C141.061 147.965 141.636 146.465 141.636 144.812C141.636 140.859 138.425 137.65 134.47 137.65C130.516 137.65 127.304 140.859 127.304 144.812C127.304 148.764 130.516 151.974 134.47 151.974C135.802 151.974 137.037 151.581 138.102 150.951L156.431 169.269V201.716L146.853 192.143C148.087 190.027 148.816 187.56 148.816 184.939C148.816 177.02 142.393 170.601 134.47 170.601C126.547 170.601 120.124 177.02 120.124 184.939C120.124 192.858 126.547 199.277 134.47 199.277C136.882 199.277 139.14 198.674 141.131 197.637L183.047 239.53L183.117 289.02L147.722 253.644L155.421 245.95V238.325C158.086 237.288 159.979 234.709 159.979 231.668C159.979 227.715 156.767 224.505 152.813 224.505C148.858 224.505 145.647 227.715 145.647 231.668C145.647 235.143 148.115 238.031 151.397 238.689V245.053L145.394 251.051L139.042 244.702H105.75L102.174 241.128L99.8886 238.395L61.5346 200.062V183.916C66.8074 181.799 70.5376 176.641 70.5376 170.615C70.5376 162.696 64.1149 156.277 56.1917 156.277C48.2685 156.277 41.8458 162.696 41.8458 170.615C41.8458 176.473 45.3656 181.505 50.4 183.719V201.351L53.5834 204.533H43.9212L34.161 194.778C34.6378 193.811 34.9463 192.746 34.9463 191.596C34.9463 187.644 31.7349 184.434 27.7803 184.434C23.8257 184.434 20.6144 187.644 20.6144 191.596C20.6144 195.549 23.8257 198.758 27.7803 198.758C28.9583 198.758 30.0521 198.45 31.0337 197.945L41.7757 208.682H57.6922L97.9954 248.963L102.791 253.35L132.423 253.883L149.966 271.416L145.268 276.112H140.346C139.799 272.692 136.868 270.085 133.292 270.085C129.338 270.085 126.126 273.294 126.126 277.247C126.126 281.199 129.338 284.409 133.292 284.409C136.518 284.409 139.21 282.265 140.108 279.335H146.334L152.574 273.098L183.342 303.849V357.403L173.441 347.508V333.31L134.078 293.968H110.49L105.975 289.455V284.171C109.06 283.372 111.346 280.597 111.346 277.261C111.346 273.308 108.134 270.099 104.18 270.099C100.225 270.099 97.0138 273.308 97.0138 277.261C97.0138 280.499 99.1734 283.204 102.132 284.087V289.539L106.339 293.744H96.4949L82.9624 280.218C84.2104 278.102 84.9256 275.635 84.9256 273C84.9256 265.081 78.5029 258.662 70.5797 258.662C62.6565 258.662 56.2338 265.081 56.2338 273C56.2338 280.919 62.6565 287.338 70.5797 287.338C72.4588 287.338 74.2538 286.974 75.8946 286.315L93.8024 304.213H123.742L129.197 304.171L131.792 306.666L155.029 329.89H90.0442L79.4846 319.336C79.8772 318.453 80.0876 317.486 80.0876 316.463C80.0876 312.511 76.8762 309.301 72.9216 309.301C68.967 309.301 65.7557 312.511 65.7557 316.463C65.7557 320.416 68.967 323.625 72.9216 323.625C74.2258 323.625 75.4318 323.247 76.4836 322.644L84.0422 330.199H64.2131L44.0475 310.044C44.6224 309.021 44.973 307.843 44.973 306.582C44.973 302.63 41.7616 299.42 37.807 299.42C33.8524 299.42 30.6411 302.63 30.6411 306.582C30.6411 310.534 33.8524 313.744 37.807 313.744C38.7466 313.744 39.6441 313.548 40.4715 313.211L61.8291 334.558H111.009L104.25 341.313C103.689 341.173 103.1 341.075 102.497 341.075C98.5423 341.075 95.331 344.285 95.331 348.237C95.331 352.189 98.5423 355.399 102.497 355.399C106.452 355.399 109.663 352.189 109.663 348.237C109.663 346.261 108.864 344.481 107.573 343.191L116.338 334.431H163.372V351.208L183.384 371.209V400.558L224.739 441.891V567.332H218.05V513.301L200.03 495.291L207.911 487.414V478.78C210.631 477.757 212.581 475.164 212.581 472.095C212.581 468.142 209.369 464.933 205.415 464.933C201.46 464.933 198.249 468.142 198.249 472.095C198.249 475.739 200.983 478.724 204.517 479.173V485.564L197.477 492.6L179.64 474.772L199.455 453.902L199.244 436.705C202.259 435.85 204.475 433.117 204.475 429.837C204.475 425.885 201.264 422.675 197.309 422.675C193.354 422.675 190.143 425.885 190.143 429.837C190.143 433.047 192.261 435.724 195.164 436.635V451.281L180.719 465.717V458.079C183.552 457.126 185.614 454.477 185.614 451.323C185.614 447.371 182.402 444.161 178.448 444.161C174.493 444.161 171.282 447.371 171.282 451.323C171.282 454.645 173.553 457.42 176.625 458.219V472.543L166.57 462.494V415.919L159.586 408.939L168.771 399.759V391.756C171.604 390.803 173.666 388.154 173.666 385C173.666 381.048 170.454 377.838 166.5 377.838C162.545 377.838 159.334 381.048 159.334 385C159.334 388.056 161.255 390.635 163.933 391.672V398.512L155.702 406.739L146.208 397.25V382.492C151.929 380.599 155.73 373.928 155.73 367.579C155.73 359.66 149.097 353.857 141.173 353.857C133.25 353.857 126.968 360.487 126.968 368.406C126.968 374.461 131.119 380.263 136.42 382.365V402.492L156.585 422.647V450.917L119.83 414.181V384.356H119.746C122.256 383.234 124.009 380.74 124.009 377.824C124.009 373.872 120.797 370.662 116.843 370.662C112.888 370.662 109.677 373.872 109.677 377.824C109.677 381.44 112.355 384.398 115.847 384.888V409.248L104.418 397.825L107.475 394.769L79.9614 367.27L64.5356 382.688L92.0635 410.187L95.8358 406.417L108.625 419.199H82.8502L69.1213 405.478H63.8765L55.2802 396.886V379.17C58.786 378.693 61.4925 375.736 61.4925 372.106C61.4925 368.153 58.2812 364.944 54.3266 364.944C50.372 364.944 47.1606 368.153 47.1606 372.106C47.1606 375.344 49.3202 378.049 52.2652 378.932V397.755L59.5713 405.057H49.8391L27.8224 383.052L26.8127 384.061C28.0468 381.945 28.762 379.492 28.762 376.857C28.762 368.938 22.3392 362.533 14.4301 362.533C6.52086 362.533 0.0981445 368.952 0.0981445 376.857C0.0981445 384.762 6.52086 391.181 14.4301 391.181C17.0664 391.181 19.5205 390.467 21.6381 389.233L19.815 391.055L45.2535 416.48H64.9844L71.6315 423.123L58.141 436.607H37.0638C35.984 434.546 33.8524 433.131 31.3703 433.131C27.7943 433.131 24.9055 436.018 24.9055 439.592C24.9055 443.166 27.7943 446.053 31.3703 446.053C34.4695 446.053 37.0638 443.867 37.6808 440.952H59.4031L74.7447 425.618L77.4932 428.365H118.792L153.64 463.195H137.177L126.912 452.935C127.809 451.744 128.356 450.272 128.356 448.674C128.356 444.722 125.145 441.512 121.19 441.512C117.236 441.512 114.024 444.722 114.024 448.674C114.024 452.627 117.236 455.836 121.19 455.836C122.298 455.836 123.336 455.57 124.261 455.122L134.316 465.171L137.219 468.437H159.432L179.794 488.787H143.445L129.66 475.01H110.869C109.943 472.025 108.022 469.32 105.232 467.427C98.6966 463.026 89.8198 464.75 85.4165 471.282C81.0131 477.813 82.738 486.685 89.2729 491.086C95.8078 495.487 104.685 493.763 109.088 487.232C109.579 486.503 109.985 485.732 110.336 484.947V485.424H125.692L139.701 499.425H189.736L206.831 516.511V624.404L179.079 652.142V657.51L192.92 657.986V654.763L218.106 629.59V596.653H224.795V641.994L214.418 652.366V657.019L214.291 657.972H225.3V653.473L234.036 644.741V596.667H242.689V641.616L253.879 652.8V657.986H263.906V645.821L253.879 635.799V596.667H259.755V624.951L290.186 655.365V657.986H300.143V652.576L270.231 622.68V518.038L315.975 472.319H358.999L367.988 481.303C366.613 483.461 365.814 486.026 365.814 488.773C365.814 496.51 372.097 502.789 379.838 502.789C387.578 502.789 393.861 496.51 393.861 488.773C393.861 481.037 387.578 474.758 379.838 474.758C377.72 474.758 375.729 475.234 373.934 476.075L362.056 464.204H324.515L353.46 435.275H408.712L420.772 423.222H460.977C462.954 428.576 468.087 432.402 474.117 432.402C481.858 432.402 488.14 426.123 488.14 418.386C488.14 410.649 481.858 404.37 474.117 404.37C468.395 404.37 463.473 407.804 461.299 412.724H436.043L447.5 401.273V383.613L467.077 364.047V351.489C472.897 349.793 477.16 344.425 477.16 338.047C477.16 330.311 470.877 324.032 463.136 324.032C455.396 324.032 449.113 330.311 449.113 338.047C449.113 343.373 452.086 348.013 456.475 350.381V360.136L436.099 380.501V396.549L406.44 426.193H365.267L404.14 387.341L405.907 389.107L428.078 366.948L415.653 354.53L393.482 376.689L395.81 379.016L375.224 399.591V387.243L388.644 373.83V367.985L389.121 367.509V331.965L398.545 322.546V310.212C403.958 308.278 407.856 303.106 407.856 297.023C407.856 289.286 401.574 283.007 393.833 283.007C386.092 283.007 379.809 289.286 379.809 297.023C379.809 302.994 383.554 308.082 388.813 310.1V317.598L378.127 328.278V362.996L351.51 336.394V308.726C353.642 307.773 355.142 305.643 355.142 303.148C355.142 299.77 352.408 297.037 349.028 297.037C345.649 297.037 342.914 299.77 342.914 303.148C342.914 306.526 345.578 309.175 348.888 309.245V339.253L377.299 367.649L365.604 379.338V409.64L361.313 413.929L354.147 406.767V402.072C356.362 401.147 357.919 398.974 357.919 396.423C357.919 393.046 355.184 390.312 351.805 390.312C348.425 390.312 345.691 393.046 345.691 396.423C345.691 399.072 347.387 401.301 349.743 402.156V407.846L358.522 416.62L291.504 483.602V450.805L336.014 406.318V372.919C341.624 371.097 345.691 365.827 345.691 359.604C345.691 351.867 339.408 345.588 331.667 345.588C323.926 345.588 317.644 351.867 317.644 359.604C317.644 365.589 321.402 370.676 326.689 372.695H326.212V393.186L311.431 378.413V364.019C313.886 363.22 315.681 360.949 315.681 358.23C315.681 354.852 312.946 352.119 309.566 352.119C306.187 352.119 303.452 354.852 303.452 358.23C303.452 360.907 305.191 363.164 307.603 363.991V379.632L325.96 397.979V401.035L296.791 430.187V420.082L300.83 416.045C301.629 416.424 302.499 416.648 303.438 416.648C306.818 416.648 309.552 413.915 309.552 410.537C309.552 407.159 306.818 404.426 303.438 404.426C300.058 404.426 297.324 407.159 297.324 410.537C297.324 411.925 297.801 413.186 298.586 414.223L293.832 418.975V434.308L281.477 446.656V481.373L266.795 466.699V450.104C269.473 449.445 271.465 447.062 271.465 444.189C271.465 440.811 268.73 438.078 265.351 438.078C261.971 438.078 259.236 440.811 259.236 444.189C259.236 447.567 261.943 450.258 265.28 450.3V468.479L281.183 484.372V492.782L259.755 514.198V567.388H253.879V426.529L293.089 387.341V337.417L310.45 320.065L313.044 316.757L358.424 271.402H396.371L399.863 267.912C400.957 268.585 402.233 268.992 403.607 268.992C407.562 268.992 410.773 265.782 410.773 261.83C410.773 257.877 407.562 254.667 403.607 254.667C399.653 254.667 396.441 257.877 396.441 261.83C396.441 262.53 396.567 263.189 396.75 263.82L393.328 267.24H363.023L391.533 238.745L392.963 234.008V221.66L411.124 204.267C413.157 205.36 415.471 205.991 417.953 205.991C425.876 205.991 432.299 199.571 432.299 191.652C432.299 183.733 425.876 177.314 417.953 177.314C410.03 177.314 403.607 183.733 403.607 191.652C403.607 193.194 403.86 194.68 404.308 196.067L383.54 216.825V232.438L362.645 253.322V201.702L371.283 193.068C372.601 194.526 374.481 195.465 376.598 195.465C380.553 195.465 383.764 192.255 383.764 188.303C383.764 184.35 380.553 181.141 376.598 181.141C372.644 181.141 369.432 184.35 369.432 188.303C369.432 188.849 369.502 189.382 369.628 189.9L362.925 196.6V176.74L379.795 159.879C380.931 160.635 382.306 161.084 383.778 161.084C387.733 161.084 390.944 157.874 390.944 153.922C390.944 149.969 387.733 146.76 383.778 146.76C379.824 146.76 376.612 149.969 376.612 153.922C376.612 154.426 376.668 154.917 376.766 155.394L356.124 176.025V230.462L356.432 230.77V259.349L318.976 296.785V280.597L335.888 263.694V254.948C342.76 253.883 348.032 247.968 348.032 240.792C348.032 232.873 341.61 226.454 333.687 226.454C325.763 226.454 319.341 232.873 319.341 240.792C319.341 246.286 322.44 251.051 326.983 253.462V259.979L314.853 272.103" fill="url(#paint0_linear_412_446)"/>
<defs>
<linearGradient id="paint0_linear_412_446" x1="27.8084" y1="122.54" x2="425.002" y2="519.949" gradientUnits="userSpaceOnUse">
<stop stop-color="#ECC42E"/>
<stop offset="0.13" stop-color="#DBB42B"/>
<stop offset="0.2" stop-color="#FFE169"/>
<stop offset="0.27" stop-color="#C9A32D"/>
<stop offset="0.36" stop-color="#DBB42B"/>
<stop offset="0.41" stop-color="#FAD642"/>
<stop offset="0.55" stop-color="#C9A32D"/>
<stop offset="0.67" stop-color="#FFE169"/>
<stop offset="0.77" stop-color="#DBB42B"/>
<stop offset="0.86" stop-color="#FFE169"/>
<stop offset="0.96" stop-color="#C9A32D"/>
</linearGradient>
</defs>
</svg>
