<svg width="488" height="654" viewBox="0 0 488 654" fill="none" xmlns="http://www.w3.org/2000/svg">
<g clip-path="url(#clip0_350_656)">
<path d="M311.123 274.836L307.996 277.962V306.049L294.211 319.827V230.728L316.593 208.359V202.36H331.177L335.075 198.464C335.678 198.632 336.309 198.744 336.969 198.744C340.923 198.744 344.134 195.535 344.134 191.582C344.134 187.63 340.923 184.42 336.969 184.42C333.014 184.42 329.803 187.63 329.803 191.582C329.803 193.096 330.279 194.498 331.079 195.661L329.129 197.609H316.775V192.605L343.98 165.415V157.538H357.948L360.345 155.141C361.453 155.842 362.772 156.277 364.188 156.277C368.143 156.277 371.354 153.067 371.354 149.114C371.354 145.162 368.143 141.952 364.188 141.952C360.233 141.952 357.022 145.162 357.022 149.114C357.022 150.138 357.246 151.091 357.625 151.974L355.816 153.782H345.158V133.655L349.463 129.352C351.188 130.081 353.067 130.487 355.059 130.487C362.982 130.487 369.405 124.068 369.405 116.149C369.405 108.23 362.982 101.811 355.059 101.811C347.135 101.811 340.713 108.23 340.713 116.149C340.713 117.733 340.979 119.247 341.456 120.676L334.108 128.021V158.757L318.303 174.553V105.932L326.409 97.8306C327.685 99.0079 329.382 99.7368 331.247 99.7368C335.202 99.7368 338.413 96.5271 338.413 92.5747C338.413 88.6222 335.202 85.4126 331.247 85.4126C327.292 85.4126 324.081 88.6222 324.081 92.5747C324.081 93.0933 324.137 93.5978 324.249 94.0884L318.584 99.7508V80.6052L334.234 64.9635C335.412 65.8185 336.856 66.3371 338.427 66.3371C342.382 66.3371 345.593 63.1275 345.593 59.175C345.593 55.2226 342.382 52.0129 338.427 52.0129C334.472 52.0129 331.261 55.2226 331.261 59.175C331.261 59.7216 331.331 60.2542 331.457 60.7588L313.76 78.4467V129.801L307.127 123.171C308.178 121.924 308.838 120.326 308.838 118.574C308.838 114.622 305.626 111.412 301.672 111.412C297.717 111.412 294.506 114.622 294.506 118.574C294.506 122.526 297.717 125.736 301.672 125.736C302.808 125.736 303.859 125.456 304.813 124.979L313.578 133.739V178.113L304.799 186.887V205.85L292.262 218.381V196.754H296.609V165.415H279.038V196.754H283.553V258.746L273.779 248.977V203.398L261.102 190.727H260.373V168.54H260.457V161.911L247.149 148.61V144.167C252.94 142.331 257.147 136.907 257.147 130.501C257.147 122.583 250.725 116.163 242.801 116.163C234.878 116.163 228.456 122.583 228.456 130.501C228.456 136.837 232.564 142.191 238.258 144.097V153.375L250.851 165.961V195.353L263.879 208.373V237.624L260.05 233.798C260.583 232.677 260.695 231.373 260.275 230.098C259.405 227.491 256.572 226.103 253.978 226.972C251.37 227.841 249.981 230.672 250.851 233.265C251.72 235.872 254.553 237.26 257.147 236.391C257.274 236.349 257.372 236.279 257.484 236.237L263.43 242.179V255.242L281.688 273.491V321.439L282.053 321.803V367.074L273.106 358.132V354.096C275.63 353.339 277.467 351.026 277.467 348.265C277.467 344.887 274.733 342.154 271.353 342.154C267.973 342.154 265.239 344.887 265.239 348.265C265.239 351.292 267.441 353.787 270.329 354.278V359.295L283.133 372.092V381.398L271.648 392.877L264.804 386.038V367.186L252.87 355.259V344.831C257.526 342.925 260.807 338.37 260.807 333.03C260.807 325.98 255.1 320.275 248.046 320.275C240.992 320.275 235.285 325.98 235.285 333.03C235.285 338.608 238.875 343.345 243.867 345.069V359.506L255.184 370.816V383.347L251.482 379.646C252.043 378.721 252.379 377.642 252.379 376.493C252.379 373.115 249.645 370.382 246.265 370.382C242.886 370.382 240.151 373.115 240.151 376.493C240.151 379.871 242.886 382.604 246.265 382.604C247.569 382.604 248.761 382.197 249.757 381.496L255.002 386.738V390.312L265.071 400.376L242.563 422.871V567.318H233.911V435.583L224.599 426.277L231.821 419.059V412.065C233.883 410.804 235.271 408.561 235.271 405.968C235.271 402.016 232.06 398.806 228.105 398.806C224.15 398.806 220.939 402.016 220.939 405.968C220.939 409.598 223.66 412.57 227.165 413.032V416.312L220.364 423.109L204.616 407.37L226.576 385.421V354.025C228.371 352.722 229.549 350.62 229.549 348.237C229.549 344.285 226.338 341.075 222.383 341.075C218.429 341.075 215.217 344.285 215.217 348.237C215.217 351.405 217.279 354.053 220.14 355.007V383.164L199.006 404.286L192.78 398.063V343.878L214.11 322.56V316.421L226.759 303.779L226.534 303.555C227.53 303.765 228.582 303.737 229.605 303.386C232.705 302.349 234.359 298.999 233.322 295.902C232.284 292.804 228.932 291.151 225.833 292.188C222.776 293.211 221.135 296.491 222.089 299.546L213.983 307.647V291.123L233.378 271.739V239.586C238.482 237.386 242.072 232.326 242.072 226.412C242.072 218.493 235.65 212.073 227.726 212.073C219.803 212.073 213.38 218.493 213.38 226.412C213.38 232.691 217.433 238.017 223.057 239.965V266.805L216.732 273.126L211.417 267.814V261.059C212.988 259.783 213.703 257.639 213.016 255.621C212.146 253.014 209.314 251.626 206.719 252.495C204.111 253.364 202.723 256.195 203.592 258.788C204.111 260.33 205.317 261.437 206.761 261.914V269.608L213.226 276.07L202.737 286.553V316.043L192.864 325.91V231.738L192.696 225.36V168.961L209.664 152.002V117.565L217.391 109.842H251.818L270.007 91.6637C271.031 92.2383 272.208 92.5887 273.471 92.5887C277.425 92.5887 280.637 89.3791 280.637 85.4266C280.637 81.4742 277.425 78.2645 273.471 78.2645C269.516 78.2645 266.305 81.4742 266.305 85.4266C266.305 86.3517 266.501 87.2347 266.809 88.0476L249.491 105.357H230.377L237.318 98.4193C238.496 99.2462 239.913 99.7508 241.455 99.7508C245.41 99.7508 248.621 96.5412 248.621 92.5887C248.621 88.6362 245.41 85.4266 241.455 85.4266C237.501 85.4266 234.289 88.6362 234.289 92.5887C234.289 93.6819 234.556 94.7051 234.99 95.6301L225.132 105.483H218.962V95.3778L245.55 68.8039H268.044L278.14 58.7125C278.926 59.0068 279.753 59.189 280.637 59.189C284.591 59.189 287.803 55.9794 287.803 52.027C287.803 48.0745 284.591 44.8649 280.637 44.8649C276.682 44.8649 273.471 48.0745 273.471 52.027C273.471 53.2884 273.821 54.4517 274.396 55.4889L265.954 63.9264H252.043L266.669 49.3079V36.4274L272.012 31.0873C273.737 31.8162 275.63 32.2366 277.636 32.2366C285.559 32.2366 291.982 25.8174 291.982 17.8985C291.982 9.97954 285.559 3.5603 277.636 3.5603C269.712 3.5603 263.29 9.97954 263.29 17.8985C263.29 19.4963 263.556 21.024 264.047 22.4536L255.549 30.9472V44.2762L217.798 81.9927V57.1848L227.67 47.3317C228.694 47.8923 229.844 48.2287 231.078 48.2287C235.032 48.2287 238.244 45.0191 238.244 41.0666C238.244 37.1141 235.032 33.9045 231.078 33.9045C227.123 33.9045 223.912 37.1141 223.912 41.0666C223.912 42.1318 224.164 43.1269 224.571 44.0379L218.457 50.1488V30.4706L235.257 13.6797C236.168 14.1002 237.178 14.3525 238.244 14.3525C242.198 14.3525 245.41 11.1429 245.41 7.1904C245.41 3.23794 242.198 0.0283203 238.244 0.0283203C234.289 0.0283203 231.078 3.23794 231.078 7.1904C231.078 7.723 231.148 8.24158 231.26 8.73213L213.086 26.8966V51.5925L210.618 49.1257C210.968 48.2707 211.081 47.3176 210.87 46.3506C210.323 43.8277 207.827 42.2299 205.303 42.7765C202.779 43.3231 201.18 45.818 201.727 48.3408C202.274 50.8636 204.77 52.4614 207.294 51.9148C207.939 51.7747 208.514 51.5084 209.005 51.158L213.016 55.1665L213.647 87.1646L209.384 91.4254V107.403L200.914 115.869V146.886L193.397 154.398L193.173 130.824L169.529 106.675V54.6619L166.851 51.9709L171.801 47.0233C172.923 47.7661 174.269 48.2006 175.728 48.2006C179.682 48.2006 182.894 44.991 182.894 41.0386C182.894 37.0861 179.682 33.8765 175.728 33.8765C171.773 33.8765 168.562 37.0861 168.562 41.0386C168.562 41.9216 168.744 42.7485 169.038 43.5334L168.716 43.211L163.05 48.8734L150.093 35.9228C150.752 34.8436 151.159 33.5681 151.159 32.2086C151.159 28.2561 147.947 25.0465 143.993 25.0465C140.038 25.0465 136.827 28.2561 136.827 32.2086C136.827 36.1611 140.038 39.3707 143.993 39.3707C145.297 39.3707 146.503 38.9923 147.555 38.3896L164.537 55.3627V77.9141L157.722 71.1025C158.1 70.2195 158.325 69.2524 158.325 68.2292C158.325 64.2768 155.113 61.0671 151.159 61.0671C147.204 61.0671 143.993 64.2768 143.993 68.2292C143.993 72.1817 147.204 75.3913 151.159 75.3913C152.771 75.3913 154.258 74.8307 155.45 73.9337L164.916 83.3943V102.218L149.728 87.0384H141.44L122.256 67.8648C123.35 65.8465 123.967 63.5339 123.967 61.0671C123.967 53.1482 117.545 46.729 109.621 46.729C101.698 46.729 95.2754 53.1482 95.2754 61.0671C95.2754 68.9861 101.698 75.4053 109.621 75.4053C111.024 75.4053 112.384 75.1951 113.674 74.8167L136.378 97.5082H145.297L158.928 111.132H135.004L126.183 102.316C126.87 101.208 127.291 99.919 127.291 98.5174C127.291 94.5649 124.079 91.3553 120.125 91.3553C116.17 91.3553 112.959 94.5649 112.959 98.5174C112.959 102.47 116.17 105.679 120.125 105.679C121.373 105.679 122.537 105.329 123.561 104.768L129.913 111.118H108.612L99.0757 101.587C99.5245 100.648 99.7909 99.6246 99.7909 98.5174C99.7909 94.5649 96.5796 91.3553 92.625 91.3553C88.6704 91.3553 85.459 94.5649 85.459 98.5174C85.459 102.47 88.6704 105.679 92.625 105.679C93.8029 105.679 94.8968 105.371 95.8784 104.867L106.648 115.631H164.27L183.104 134.454V166.48L170.272 153.656V148.512C172.797 147.405 174.578 144.896 174.578 141.952C174.578 138 171.366 134.79 167.412 134.79C163.457 134.79 160.246 138 160.246 141.952C160.246 145.905 163.401 149.044 167.314 149.1V154.959L182.964 170.601V228.065L158.759 203.874V167.798L140.122 149.171C141.062 147.965 141.637 146.465 141.637 144.812C141.637 140.859 138.425 137.65 134.471 137.65C130.516 137.65 127.305 140.859 127.305 144.812C127.305 148.764 130.516 151.974 134.471 151.974C135.803 151.974 137.037 151.581 138.103 150.951L156.431 169.269V201.716L146.853 192.143C148.087 190.027 148.817 187.56 148.817 184.939C148.817 177.02 142.394 170.601 134.471 170.601C126.548 170.601 120.125 177.02 120.125 184.939C120.125 192.858 126.548 199.277 134.471 199.277C136.883 199.277 139.141 198.674 141.132 197.637L183.048 239.53L183.118 289.02L147.723 253.644L155.422 245.95V238.325C158.086 237.288 159.979 234.709 159.979 231.668C159.979 227.715 156.768 224.505 152.813 224.505C148.859 224.505 145.647 227.715 145.647 231.668C145.647 235.143 148.116 238.031 151.397 238.689V245.053L145.395 251.051L139.042 244.702H105.751L102.175 241.128L99.8891 238.395L61.5351 200.062V183.916C66.8079 181.799 70.5381 176.641 70.5381 170.615C70.5381 162.696 64.1154 156.277 56.1922 156.277C48.269 156.277 41.8463 162.696 41.8463 170.615C41.8463 176.473 45.3661 181.505 50.4005 183.719V201.351L53.5838 204.533H43.9217L34.1614 194.778C34.6382 193.811 34.9468 192.746 34.9468 191.596C34.9468 187.644 31.7354 184.434 27.7808 184.434C23.8262 184.434 20.6149 187.644 20.6149 191.596C20.6149 195.549 23.8262 198.758 27.7808 198.758C28.9588 198.758 30.0526 198.45 31.0342 197.945L41.7762 208.682H57.6927L97.9959 248.963L102.792 253.35L132.423 253.883L149.967 271.416L145.269 276.112H140.347C139.8 272.692 136.869 270.085 133.293 270.085C129.338 270.085 126.127 273.294 126.127 277.247C126.127 281.199 129.338 284.409 133.293 284.409C136.518 284.409 139.211 282.265 140.108 279.335H146.335L152.575 273.098L183.342 303.849V357.403L173.442 347.508V333.31L134.078 293.968H110.491L105.975 289.455V284.171C109.06 283.372 111.346 280.597 111.346 277.261C111.346 273.308 108.135 270.099 104.18 270.099C100.226 270.099 97.0143 273.308 97.0143 277.261C97.0143 280.499 99.1739 283.204 102.133 284.087V289.539L106.34 293.744H96.4954L82.9629 280.218C84.2109 278.102 84.9261 275.635 84.9261 273C84.9261 265.081 78.5034 258.662 70.5802 258.662C62.657 258.662 56.2343 265.081 56.2343 273C56.2343 280.919 62.657 287.338 70.5802 287.338C72.4593 287.338 74.2543 286.974 75.8951 286.315L93.8029 304.213H123.743L129.198 304.171L131.792 306.666L155.029 329.89H90.0447L79.485 319.336C79.8777 318.453 80.0881 317.486 80.0881 316.463C80.0881 312.511 76.8767 309.301 72.9221 309.301C68.9675 309.301 65.7561 312.511 65.7561 316.463C65.7561 320.416 68.9675 323.625 72.9221 323.625C74.2263 323.625 75.4323 323.247 76.484 322.644L84.0427 330.199H64.2136L44.0479 310.044C44.6229 309.021 44.9735 307.843 44.9735 306.582C44.9735 302.63 41.7621 299.42 37.8075 299.42C33.8529 299.42 30.6416 302.63 30.6416 306.582C30.6416 310.534 33.8529 313.744 37.8075 313.744C38.7471 313.744 39.6446 313.548 40.472 313.211L61.8296 334.558H111.01L104.25 341.313C103.689 341.173 103.1 341.075 102.497 341.075C98.5428 341.075 95.3315 344.285 95.3315 348.237C95.3315 352.189 98.5428 355.399 102.497 355.399C106.452 355.399 109.663 352.189 109.663 348.237C109.663 346.261 108.864 344.481 107.574 343.191L116.339 334.431H163.373V351.208L183.384 371.209V400.558L224.739 441.891V567.332H218.05V513.301L200.03 495.291L207.911 487.414V478.78C210.632 477.757 212.581 475.164 212.581 472.095C212.581 468.142 209.37 464.933 205.415 464.933C201.46 464.933 198.249 468.142 198.249 472.095C198.249 475.739 200.984 478.724 204.518 479.173V485.564L197.478 492.6L179.64 474.772L199.455 453.902L199.245 436.705C202.26 435.85 204.476 433.117 204.476 429.837C204.476 425.885 201.264 422.675 197.31 422.675C193.355 422.675 190.144 425.885 190.144 429.837C190.144 433.047 192.261 435.724 195.164 436.635V451.281L180.72 465.717V458.079C183.553 457.126 185.614 454.477 185.614 451.323C185.614 447.371 182.403 444.161 178.448 444.161C174.494 444.161 171.282 447.371 171.282 451.323C171.282 454.645 173.554 457.42 176.625 458.219V472.543L166.57 462.494V415.919L159.587 408.939L168.772 399.759V391.756C171.605 390.803 173.666 388.154 173.666 385C173.666 381.048 170.455 377.838 166.5 377.838C162.546 377.838 159.334 381.048 159.334 385C159.334 388.056 161.255 390.635 163.934 391.672V398.512L155.702 406.739L146.208 397.25V382.492C151.93 380.599 155.73 373.928 155.73 367.579C155.73 359.66 149.097 353.857 141.174 353.857C133.251 353.857 126.968 360.487 126.968 368.406C126.968 374.461 131.119 380.263 136.42 382.365V402.492L156.586 422.647V450.917L119.83 414.181V384.356H119.746C122.256 383.234 124.009 380.74 124.009 377.824C124.009 373.872 120.798 370.662 116.843 370.662C112.889 370.662 109.677 373.872 109.677 377.824C109.677 381.44 112.356 384.398 115.848 384.888V409.248L104.419 397.825L107.476 394.769L79.9618 367.27L64.5361 382.688L92.064 410.187L95.8363 406.417L108.626 419.199H82.8507L69.1218 405.478H63.877L55.2807 396.886V379.17C58.7865 378.693 61.493 375.736 61.493 372.106C61.493 368.153 58.2817 364.944 54.3271 364.944C50.3725 364.944 47.1611 368.153 47.1611 372.106C47.1611 375.344 49.3207 378.049 52.2656 378.932V397.755L59.5718 405.057H49.8396L27.8229 383.052L26.8132 384.061C28.0473 381.945 28.7624 379.492 28.7624 376.857C28.7624 368.938 22.3397 362.533 14.4305 362.533C6.52135 362.533 0.0986328 368.952 0.0986328 376.857C0.0986328 384.762 6.52135 391.181 14.4305 391.181C17.0669 391.181 19.521 390.467 21.6386 389.233L19.8155 391.055L45.254 416.48H64.9849L71.632 423.123L58.1414 436.607H37.0643C35.9845 434.546 33.8529 433.131 31.3708 433.131C27.7948 433.131 24.906 436.018 24.906 439.592C24.906 443.166 27.7948 446.053 31.3708 446.053C34.47 446.053 37.0643 443.867 37.6813 440.952H59.4036L74.7451 425.618L77.4937 428.365H118.793L153.641 463.195H137.177L126.912 452.935C127.81 451.744 128.357 450.272 128.357 448.674C128.357 444.722 125.145 441.512 121.191 441.512C117.236 441.512 114.025 444.722 114.025 448.674C114.025 452.627 117.236 455.836 121.191 455.836C122.298 455.836 123.336 455.57 124.262 455.122L134.317 465.171L137.219 468.437H159.432L179.794 488.787H143.446L129.661 475.01H110.869C109.944 472.025 108.023 469.32 105.232 467.427C98.6971 463.026 89.8203 464.75 85.4169 471.282C81.0136 477.813 82.7385 486.685 89.2734 491.086C95.8083 495.487 104.685 493.763 109.088 487.232C109.579 486.503 109.986 485.732 110.337 484.947V485.424H125.692L139.701 499.425H189.737L206.831 516.511V624.404L179.079 652.142V657.51L192.92 657.986V654.763L218.106 629.59V596.653H224.795V641.994L214.418 652.366V657.019L214.292 657.972H225.3V653.473L234.037 644.741V596.667H242.689V641.616L253.88 652.8V657.986H263.907V645.821L253.88 635.799V596.667H259.756V624.951L290.186 655.365V657.986H300.143V652.576L270.231 622.68V518.038L315.976 472.319H358.999L367.988 481.303C366.614 483.461 365.815 486.026 365.815 488.773C365.815 496.51 372.097 502.789 379.838 502.789C387.579 502.789 393.861 496.51 393.861 488.773C393.861 481.037 387.579 474.758 379.838 474.758C377.72 474.758 375.729 475.234 373.934 476.075L362.056 464.204H324.516L353.46 435.275H408.712L420.772 423.222H460.977C462.955 428.576 468.087 432.402 474.117 432.402C481.858 432.402 488.141 426.123 488.141 418.386C488.141 410.649 481.858 404.37 474.117 404.37C468.396 404.37 463.474 407.804 461.3 412.724H436.044L447.501 401.273V383.613L467.078 364.047V351.489C472.897 349.793 477.16 344.425 477.16 338.047C477.16 330.311 470.878 324.032 463.137 324.032C455.396 324.032 449.114 330.311 449.114 338.047C449.114 343.373 452.087 348.013 456.476 350.381V360.136L436.1 380.501V396.549L406.44 426.193H365.268L404.141 387.341L405.908 389.107L428.078 366.948L415.654 354.53L393.483 376.689L395.811 379.016L375.224 399.591V387.243L388.645 373.83V367.985L389.122 367.509V331.965L398.545 322.546V310.212C403.958 308.278 407.857 303.106 407.857 297.023C407.857 289.286 401.574 283.007 393.833 283.007C386.092 283.007 379.81 289.286 379.81 297.023C379.81 302.994 383.554 308.082 388.813 310.1V317.598L378.127 328.278V362.996L351.511 336.394V308.726C353.642 307.773 355.143 305.643 355.143 303.148C355.143 299.77 352.408 297.037 349.029 297.037C345.649 297.037 342.914 299.77 342.914 303.148C342.914 306.526 345.579 309.175 348.888 309.245V339.253L377.3 367.649L365.604 379.338V409.64L361.313 413.929L354.147 406.767V402.072C356.363 401.147 357.919 398.974 357.919 396.423C357.919 393.046 355.185 390.312 351.805 390.312C348.426 390.312 345.691 393.046 345.691 396.423C345.691 399.072 347.388 401.301 349.744 402.156V407.846L358.522 416.62L291.505 483.602V450.805L336.015 406.318V372.919C341.624 371.097 345.691 365.827 345.691 359.604C345.691 351.867 339.409 345.588 331.668 345.588C323.927 345.588 317.644 351.867 317.644 359.604C317.644 365.589 321.403 370.676 326.689 372.695H326.213V393.186L311.432 378.413V364.019C313.886 363.22 315.681 360.949 315.681 358.23C315.681 354.852 312.946 352.119 309.567 352.119C306.187 352.119 303.453 354.852 303.453 358.23C303.453 360.907 305.192 363.164 307.604 363.991V379.632L325.96 397.979V401.035L296.792 430.187V420.082L300.83 416.045C301.63 416.424 302.499 416.648 303.439 416.648C306.818 416.648 309.553 413.915 309.553 410.537C309.553 407.159 306.818 404.426 303.439 404.426C300.059 404.426 297.324 407.159 297.324 410.537C297.324 411.925 297.801 413.186 298.586 414.223L293.833 418.975V434.308L281.478 446.656V481.373L266.795 466.699V450.104C269.474 449.445 271.465 447.062 271.465 444.189C271.465 440.811 268.731 438.078 265.351 438.078C261.971 438.078 259.237 440.811 259.237 444.189C259.237 447.567 261.943 450.258 265.281 450.3V468.479L281.183 484.372V492.782L259.756 514.198V567.388H253.88V426.529L293.089 387.341V337.417L310.45 320.065L313.045 316.757L358.424 271.402H396.372L399.863 267.912C400.957 268.585 402.233 268.992 403.608 268.992C407.562 268.992 410.774 265.782 410.774 261.83C410.774 257.877 407.562 254.667 403.608 254.667C399.653 254.667 396.442 257.877 396.442 261.83C396.442 262.53 396.568 263.189 396.75 263.82L393.329 267.24H363.024L391.534 238.745L392.964 234.008V221.66L411.124 204.267C413.158 205.36 415.471 205.991 417.954 205.991C425.877 205.991 432.3 199.571 432.3 191.652C432.3 183.733 425.877 177.314 417.954 177.314C410.03 177.314 403.608 183.733 403.608 191.652C403.608 193.194 403.86 194.68 404.309 196.067L383.54 216.825V232.438L362.645 253.322V201.702L371.284 193.068C372.602 194.526 374.481 195.465 376.599 195.465C380.553 195.465 383.765 192.255 383.765 188.303C383.765 184.35 380.553 181.141 376.599 181.141C372.644 181.141 369.433 184.35 369.433 188.303C369.433 188.849 369.503 189.382 369.629 189.9L362.926 196.6V176.74L379.796 159.879C380.932 160.635 382.306 161.084 383.779 161.084C387.733 161.084 390.945 157.874 390.945 153.922C390.945 149.969 387.733 146.76 383.779 146.76C379.824 146.76 376.613 149.969 376.613 153.922C376.613 154.426 376.669 154.917 376.767 155.394L356.124 176.025V230.462L356.433 230.77V259.349L318.977 296.785V280.597L335.889 263.694V254.948C342.76 253.883 348.033 247.968 348.033 240.792C348.033 232.873 341.61 226.454 333.687 226.454C325.764 226.454 319.341 232.873 319.341 240.792C319.341 246.286 322.44 251.051 326.984 253.462V259.979L314.854 272.103" fill="url(#paint0_linear_350_656)"/>
</g>
<defs>
<linearGradient id="paint0_linear_350_656" x1="27.8089" y1="122.54" x2="425.003" y2="519.949" gradientUnits="userSpaceOnUse">
<stop stop-color="#ECC42E"/>
<stop offset="0.13" stop-color="#DBB42B"/>
<stop offset="0.2" stop-color="#FFE169"/>
<stop offset="0.27" stop-color="#C9A32D"/>
<stop offset="0.36" stop-color="#DBB42B"/>
<stop offset="0.41" stop-color="#FAD642"/>
<stop offset="0.55" stop-color="#C9A32D"/>
<stop offset="0.67" stop-color="#FFE169"/>
<stop offset="0.77" stop-color="#DBB42B"/>
<stop offset="0.86" stop-color="#FFE169"/>
<stop offset="0.96" stop-color="#C9A32D"/>
</linearGradient>
<clipPath id="clip0_350_656">
<rect width="488" height="658" fill="white"/>
</clipPath>
</defs>
</svg>
