<svg width="1920" height="237" viewBox="0 0 1920 237" fill="none" xmlns="http://www.w3.org/2000/svg">
<path d="M1943 253.299V16.0343C1943 16.0343 1795.2 58.2365 1722.75 30.5934C1650.31 2.9503 1380.07 127.398 1356.9 109.204C1356.9 109.204 1368.49 74.2707 1398.18 63.346C1398.18 63.346 1348.92 66.2536 1322.12 85.1741L1312.69 92.4429C1312.69 92.4429 1296.75 63.3247 1332.25 12.3785C1332.25 12.3785 1296.75 33.4796 1285.88 65.5053C1285.88 65.5053 1266.32 13.8322 1203.28 0C1203.28 0 1247.49 30.572 1255.45 88.0602C1255.45 88.0602 1243.12 53.1269 1209.8 42.9291C1209.8 42.9291 1232.97 72.0473 1228.63 90.2409C1228.63 90.2409 1167.04 64.0302 1123.58 91.6946C1123.58 91.6946 1180.09 91.6946 1204.01 113.523C1204.01 113.523 1151.29 121.155 1106.2 141.358C1061.1 161.561 1027.41 121.711 967.629 118.974C907.848 116.238 689.432 135.885 675.833 152.817C675.833 152.817 689.964 124.982 682.345 108.605C682.345 108.605 674.194 146.275 660.063 147.9C660.063 147.9 647.017 117.884 651.358 88.4023C651.358 88.4023 645.931 129.878 622.564 141.358C622.564 141.358 606.262 148.99 605.177 144.629C605.177 144.629 622.564 120.62 617.669 104.244C617.669 104.244 607.347 121.711 595.387 126.628C595.387 126.628 599.196 77.499 591.578 54.5807C591.578 54.5807 583.98 122.267 566.039 127.718C566.039 127.718 548.099 122.267 564.4 46.927C564.4 46.927 531.265 76.9431 531.797 111.342C531.797 111.342 508.982 88.4236 507.897 62.213C507.897 62.213 500.299 112.967 506.258 125.538C506.258 125.538 478.549 96.6118 431.282 117.349C431.282 117.349 460.077 112.988 478.017 150.637C478.017 150.637 378.588 153.908 347.602 167.013C347.602 167.013 353.582 143.004 332.938 128.809C332.938 128.809 300.888 82.4162 279.691 84.041C258.494 85.6872 245.448 99.8614 245.448 110.786C245.448 110.786 143.849 106.425 88.4093 76.9431C32.9699 47.4615 51.4639 104.244 38.4181 120.62C25.3723 136.997 -17 124.447 -17 124.447L-13.1905 262L1943 253.299Z" fill="#2E692E"/>
</svg>
