<svg width="1794" height="321" viewBox="0 0 1794 321" fill="none" xmlns="http://www.w3.org/2000/svg">
<path d="M1870.66 178.239L1875 44.9559C1875 44.9559 1831.52 48.5929 1788.06 36.9547C1744.58 25.295 1665.63 66.8204 1638.81 69.0026C1612 71.1847 1435.95 96.6861 1338.87 61.7287C1241.78 26.7712 1225.84 -5.27667 1154.84 24.5891C1083.85 54.4548 978.074 100.323 853.447 73.3883C728.842 46.4321 473.82 -6.00406 392.672 0.563829C311.525 7.13172 242.699 68.2966 168.808 59.5465C94.9173 50.7965 0 59.5465 0 59.5465L140.546 203.013L967.199 311.523L1599.68 321L1873.53 299.157L1870.66 178.239Z" fill="#55B553"/>
</svg>
