<svg xmlns="http://www.w3.org/2000/svg" xmlns:svgjs="http://svgjs.dev/svgjs" xmlns:xlink="http://www.w3.org/1999/xlink" version="1.1" viewBox="0 0 1422 800"><g fill="none" stroke="#eeef20" stroke-linecap="round" stroke-width="3.5"><line x1="0" x2="54" y1="0" y2="54" opacity="1"/><line x1="54" x2="108" y1="0" y2="54" opacity=".96"/><line x1="162" x2="108" y1="0" y2="54" opacity=".93"/><line x1="162" x2="216" y1="0" y2="54" opacity=".89"/><line x1="216" x2="270" y1="0" y2="54" opacity=".86"/><line x1="324" x2="270" y1="0" y2="54" opacity=".82"/><line x1="378" x2="324" y1="0" y2="54" opacity=".78"/><line x1="432" x2="378" y1="0" y2="54" opacity=".75"/><line x1="486" x2="432" y1="0" y2="54" opacity=".71"/><line x1="540" x2="486" y1="0" y2="54" opacity=".68"/><line x1="540" x2="594" y1="0" y2="54" opacity=".64"/><line x1="594" x2="648" y1="0" y2="54" opacity=".6"/><line x1="648" x2="702" y1="0" y2="54" opacity=".57"/><line x1="756" x2="702" y1="0" y2="54" opacity=".53"/><line x1="810" x2="756" y1="0" y2="54" opacity=".49"/><line x1="810" x2="864" y1="0" y2="54" opacity=".46"/><line x1="918" x2="864" y1="0" y2="54" opacity=".42"/><line x1="972" x2="918" y1="0" y2="54" opacity=".39"/><line x1="1026" x2="972" y1="0" y2="54" opacity=".35"/><line x1="1026" x2="1080" y1="0" y2="54" opacity=".31"/><line x1="1134" x2="1080" y1="0" y2="54" opacity=".28"/><line x1="1134" x2="1188" y1="0" y2="54" opacity=".24"/><line x1="1242" x2="1188" y1="0" y2="54" opacity=".21"/><line x1="1296" x2="1242" y1="0" y2="54" opacity=".17"/><line x1="1350" x2="1296" y1="0" y2="54" opacity=".13"/><line x1="1350" x2="1404" y1="0" y2="54" opacity=".1"/><line x1="1404" x2="1458" y1="0" y2="54" opacity=".06"/><line x1="54" x2="0" y1="54" y2="108" opacity="1"/><line x1="54" x2="108" y1="54" y2="108" opacity=".96"/><line x1="108" x2="162" y1="54" y2="108" opacity=".93"/><line x1="162" x2="216" y1="54" y2="108" opacity=".89"/><line x1="270" x2="216" y1="54" y2="108" opacity=".86"/><line x1="270" x2="324" y1="54" y2="108" opacity=".82"/><line x1="378" x2="324" y1="54" y2="108" opacity=".78"/><line x1="378" x2="432" y1="54" y2="108" opacity=".75"/><line x1="432" x2="486" y1="54" y2="108" opacity=".71"/><line x1="486" x2="540" y1="54" y2="108" opacity=".68"/><line x1="540" x2="594" y1="54" y2="108" opacity=".64"/><line x1="648" x2="594" y1="54" y2="108" opacity=".6"/><line x1="702" x2="648" y1="54" y2="108" opacity=".57"/><line x1="756" x2="702" y1="54" y2="108" opacity=".53"/><line x1="810" x2="756" y1="54" y2="108" opacity=".49"/><line x1="864" x2="810" y1="54" y2="108" opacity=".46"/><line x1="864" x2="918" y1="54" y2="108" opacity=".42"/><line x1="918" x2="972" y1="54" y2="108" opacity=".39"/><line x1="1026" x2="972" y1="54" y2="108" opacity=".35"/><line x1="1026" x2="1080" y1="54" y2="108" opacity=".31"/><line x1="1134" x2="1080" y1="54" y2="108" opacity=".28"/><line x1="1188" x2="1134" y1="54" y2="108" opacity=".24"/><line x1="1242" x2="1188" y1="54" y2="108" opacity=".21"/><line x1="1296" x2="1242" y1="54" y2="108" opacity=".17"/><line x1="1350" x2="1296" y1="54" y2="108" opacity=".13"/><line x1="1404" x2="1350" y1="54" y2="108" opacity=".1"/><line x1="1404" x2="1458" y1="54" y2="108" opacity=".06"/><line x1="0" x2="54" y1="108" y2="162" opacity="1"/><line x1="54" x2="108" y1="108" y2="162" opacity=".96"/><line x1="162" x2="108" y1="108" y2="162" opacity=".93"/><line x1="216" x2="162" y1="108" y2="162" opacity=".89"/><line x1="216" x2="270" y1="108" y2="162" opacity=".86"/><line x1="270" x2="324" y1="108" y2="162" opacity=".82"/><line x1="378" x2="324" y1="108" y2="162" opacity=".78"/><line x1="378" x2="432" y1="108" y2="162" opacity=".75"/><line x1="486" x2="432" y1="108" y2="162" opacity=".71"/><line x1="540" x2="486" y1="108" y2="162" opacity=".68"/><line x1="540" x2="594" y1="108" y2="162" opacity=".64"/><line x1="594" x2="648" y1="108" y2="162" opacity=".6"/><line x1="648" x2="702" y1="108" y2="162" opacity=".57"/><line x1="702" x2="756" y1="108" y2="162" opacity=".53"/><line x1="810" x2="756" y1="108" y2="162" opacity=".49"/><line x1="864" x2="810" y1="108" y2="162" opacity=".46"/><line x1="864" x2="918" y1="108" y2="162" opacity=".42"/><line x1="972" x2="918" y1="108" y2="162" opacity=".39"/><line x1="972" x2="1026" y1="108" y2="162" opacity=".35"/><line x1="1080" x2="1026" y1="108" y2="162" opacity=".31"/><line x1="1080" x2="1134" y1="108" y2="162" opacity=".28"/><line x1="1188" x2="1134" y1="108" y2="162" opacity=".24"/><line x1="1242" x2="1188" y1="108" y2="162" opacity=".21"/><line x1="1296" x2="1242" y1="108" y2="162" opacity=".17"/><line x1="1296" x2="1350" y1="108" y2="162" opacity=".13"/><line x1="1404" x2="1350" y1="108" y2="162" opacity=".1"/><line x1="1458" x2="1404" y1="108" y2="162" opacity=".06"/><line x1="54" x2="0" y1="162" y2="216" opacity="1"/><line x1="54" x2="108" y1="162" y2="216" opacity=".96"/><line x1="162" x2="108" y1="162" y2="216" opacity=".93"/><line x1="162" x2="216" y1="162" y2="216" opacity=".89"/><line x1="216" x2="270" y1="162" y2="216" opacity=".86"/><line x1="270" x2="324" y1="162" y2="216" opacity=".82"/><line x1="378" x2="324" y1="162" y2="216" opacity=".78"/><line x1="432" x2="378" y1="162" y2="216" opacity=".75"/><line x1="432" x2="486" y1="162" y2="216" opacity=".71"/><line x1="540" x2="486" y1="162" y2="216" opacity=".68"/><line x1="594" x2="540" y1="162" y2="216" opacity=".64"/><line x1="594" x2="648" y1="162" y2="216" opacity=".6"/><line x1="648" x2="702" y1="162" y2="216" opacity=".57"/><line x1="756" x2="702" y1="162" y2="216" opacity=".53"/><line x1="810" x2="756" y1="162" y2="216" opacity=".49"/><line x1="864" x2="810" y1="162" y2="216" opacity=".46"/><line x1="864" x2="918" y1="162" y2="216" opacity=".42"/><line x1="972" x2="918" y1="162" y2="216" opacity=".39"/><line x1="1026" x2="972" y1="162" y2="216" opacity=".35"/><line x1="1080" x2="1026" y1="162" y2="216" opacity=".31"/><line x1="1134" x2="1080" y1="162" y2="216" opacity=".28"/><line x1="1134" x2="1188" y1="162" y2="216" opacity=".24"/><line x1="1242" x2="1188" y1="162" y2="216" opacity=".21"/><line x1="1242" x2="1296" y1="162" y2="216" opacity=".17"/><line x1="1350" x2="1296" y1="162" y2="216" opacity=".13"/><line x1="1350" x2="1404" y1="162" y2="216" opacity=".1"/><line x1="1404" x2="1458" y1="162" y2="216" opacity=".06"/><line x1="54" x2="0" y1="216" y2="270" opacity="1"/><line x1="54" x2="108" y1="216" y2="270" opacity=".96"/><line x1="108" x2="162" y1="216" y2="270" opacity=".93"/><line x1="216" x2="162" y1="216" y2="270" opacity=".89"/><line x1="216" x2="270" y1="216" y2="270" opacity=".86"/><line x1="324" x2="270" y1="216" y2="270" opacity=".82"/><line x1="324" x2="378" y1="216" y2="270" opacity=".78"/><line x1="378" x2="432" y1="216" y2="270" opacity=".75"/><line x1="486" x2="432" y1="216" y2="270" opacity=".71"/><line x1="486" x2="540" y1="216" y2="270" opacity=".68"/><line x1="540" x2="594" y1="216" y2="270" opacity=".64"/><line x1="594" x2="648" y1="216" y2="270" opacity=".6"/><line x1="648" x2="702" y1="216" y2="270" opacity=".57"/><line x1="756" x2="702" y1="216" y2="270" opacity=".53"/><line x1="810" x2="756" y1="216" y2="270" opacity=".49"/><line x1="864" x2="810" y1="216" y2="270" opacity=".46"/><line x1="864" x2="918" y1="216" y2="270" opacity=".42"/><line x1="918" x2="972" y1="216" y2="270" opacity=".39"/><line x1="972" x2="1026" y1="216" y2="270" opacity=".35"/><line x1="1080" x2="1026" y1="216" y2="270" opacity=".31"/><line x1="1080" x2="1134" y1="216" y2="270" opacity=".28"/><line x1="1188" x2="1134" y1="216" y2="270" opacity=".24"/><line x1="1188" x2="1242" y1="216" y2="270" opacity=".21"/><line x1="1242" x2="1296" y1="216" y2="270" opacity=".17"/><line x1="1350" x2="1296" y1="216" y2="270" opacity=".13"/><line x1="1404" x2="1350" y1="216" y2="270" opacity=".1"/><line x1="1404" x2="1458" y1="216" y2="270" opacity=".06"/><line x1="54" x2="0" y1="270" y2="324" opacity="1"/><line x1="54" x2="108" y1="270" y2="324" opacity=".96"/><line x1="108" x2="162" y1="270" y2="324" opacity=".93"/><line x1="216" x2="162" y1="270" y2="324" opacity=".89"/><line x1="270" x2="216" y1="270" y2="324" opacity=".86"/><line x1="324" x2="270" y1="270" y2="324" opacity=".82"/><line x1="378" x2="324" y1="270" y2="324" opacity=".78"/><line x1="378" x2="432" y1="270" y2="324" opacity=".75"/><line x1="486" x2="432" y1="270" y2="324" opacity=".71"/><line x1="540" x2="486" y1="270" y2="324" opacity=".68"/><line x1="540" x2="594" y1="270" y2="324" opacity=".64"/><line x1="648" x2="594" y1="270" y2="324" opacity=".6"/><line x1="648" x2="702" y1="270" y2="324" opacity=".57"/><line x1="756" x2="702" y1="270" y2="324" opacity=".53"/><line x1="810" x2="756" y1="270" y2="324" opacity=".49"/><line x1="864" x2="810" y1="270" y2="324" opacity=".46"/><line x1="864" x2="918" y1="270" y2="324" opacity=".42"/><line x1="918" x2="972" y1="270" y2="324" opacity=".39"/><line x1="972" x2="1026" y1="270" y2="324" opacity=".35"/><line x1="1080" x2="1026" y1="270" y2="324" opacity=".31"/><line x1="1080" x2="1134" y1="270" y2="324" opacity=".28"/><line x1="1188" x2="1134" y1="270" y2="324" opacity=".24"/><line x1="1242" x2="1188" y1="270" y2="324" opacity=".21"/><line x1="1242" x2="1296" y1="270" y2="324" opacity=".17"/><line x1="1350" x2="1296" y1="270" y2="324" opacity=".13"/><line x1="1350" x2="1404" y1="270" y2="324" opacity=".1"/><line x1="1458" x2="1404" y1="270" y2="324" opacity=".06"/><line x1="54" x2="0" y1="324" y2="378" opacity="1"/><line x1="108" x2="54" y1="324" y2="378" opacity=".96"/><line x1="108" x2="162" y1="324" y2="378" opacity=".93"/><line x1="162" x2="216" y1="324" y2="378" opacity=".89"/><line x1="216" x2="270" y1="324" y2="378" opacity=".86"/><line x1="270" x2="324" y1="324" y2="378" opacity=".82"/><line x1="324" x2="378" y1="324" y2="378" opacity=".78"/><line x1="432" x2="378" y1="324" y2="378" opacity=".75"/><line x1="486" x2="432" y1="324" y2="378" opacity=".71"/><line x1="486" x2="540" y1="324" y2="378" opacity=".68"/><line x1="594" x2="540" y1="324" y2="378" opacity=".64"/><line x1="648" x2="594" y1="324" y2="378" opacity=".6"/><line x1="702" x2="648" y1="324" y2="378" opacity=".57"/><line x1="756" x2="702" y1="324" y2="378" opacity=".53"/><line x1="756" x2="810" y1="324" y2="378" opacity=".49"/><line x1="864" x2="810" y1="324" y2="378" opacity=".46"/><line x1="918" x2="864" y1="324" y2="378" opacity=".42"/><line x1="918" x2="972" y1="324" y2="378" opacity=".39"/><line x1="1026" x2="972" y1="324" y2="378" opacity=".35"/><line x1="1080" x2="1026" y1="324" y2="378" opacity=".31"/><line x1="1080" x2="1134" y1="324" y2="378" opacity=".28"/><line x1="1188" x2="1134" y1="324" y2="378" opacity=".24"/><line x1="1188" x2="1242" y1="324" y2="378" opacity=".21"/><line x1="1242" x2="1296" y1="324" y2="378" opacity=".17"/><line x1="1350" x2="1296" y1="324" y2="378" opacity=".13"/><line x1="1350" x2="1404" y1="324" y2="378" opacity=".1"/><line x1="1404" x2="1458" y1="324" y2="378" opacity=".06"/><line x1="0" x2="54" y1="378" y2="432" opacity="1"/><line x1="108" x2="54" y1="378" y2="432" opacity=".96"/><line x1="162" x2="108" y1="378" y2="432" opacity=".93"/><line x1="162" x2="216" y1="378" y2="432" opacity=".89"/><line x1="270" x2="216" y1="378" y2="432" opacity=".86"/><line x1="324" x2="270" y1="378" y2="432" opacity=".82"/><line x1="324" x2="378" y1="378" y2="432" opacity=".78"/><line x1="432" x2="378" y1="378" y2="432" opacity=".75"/><line x1="432" x2="486" y1="378" y2="432" opacity=".71"/><line x1="540" x2="486" y1="378" y2="432" opacity=".68"/><line x1="594" x2="540" y1="378" y2="432" opacity=".64"/><line x1="648" x2="594" y1="378" y2="432" opacity=".6"/><line x1="702" x2="648" y1="378" y2="432" opacity=".57"/><line x1="702" x2="756" y1="378" y2="432" opacity=".53"/><line x1="756" x2="810" y1="378" y2="432" opacity=".49"/><line x1="810" x2="864" y1="378" y2="432" opacity=".46"/><line x1="864" x2="918" y1="378" y2="432" opacity=".42"/><line x1="918" x2="972" y1="378" y2="432" opacity=".39"/><line x1="1026" x2="972" y1="378" y2="432" opacity=".35"/><line x1="1080" x2="1026" y1="378" y2="432" opacity=".31"/><line x1="1080" x2="1134" y1="378" y2="432" opacity=".28"/><line x1="1188" x2="1134" y1="378" y2="432" opacity=".24"/><line x1="1188" x2="1242" y1="378" y2="432" opacity=".21"/><line x1="1242" x2="1296" y1="378" y2="432" opacity=".17"/><line x1="1296" x2="1350" y1="378" y2="432" opacity=".13"/><line x1="1404" x2="1350" y1="378" y2="432" opacity=".1"/><line x1="1404" x2="1458" y1="378" y2="432" opacity=".06"/><line x1="0" x2="54" y1="432" y2="486" opacity="1"/><line x1="108" x2="54" y1="432" y2="486" opacity=".96"/><line x1="108" x2="162" y1="432" y2="486" opacity=".93"/><line x1="162" x2="216" y1="432" y2="486" opacity=".89"/><line x1="216" x2="270" y1="432" y2="486" opacity=".86"/><line x1="270" x2="324" y1="432" y2="486" opacity=".82"/><line x1="324" x2="378" y1="432" y2="486" opacity=".78"/><line x1="432" x2="378" y1="432" y2="486" opacity=".75"/><line x1="432" x2="486" y1="432" y2="486" opacity=".71"/><line x1="486" x2="540" y1="432" y2="486" opacity=".68"/><line x1="594" x2="540" y1="432" y2="486" opacity=".64"/><line x1="648" x2="594" y1="432" y2="486" opacity=".6"/><line x1="648" x2="702" y1="432" y2="486" opacity=".57"/><line x1="702" x2="756" y1="432" y2="486" opacity=".53"/><line x1="756" x2="810" y1="432" y2="486" opacity=".49"/><line x1="810" x2="864" y1="432" y2="486" opacity=".46"/><line x1="864" x2="918" y1="432" y2="486" opacity=".42"/><line x1="918" x2="972" y1="432" y2="486" opacity=".39"/><line x1="1026" x2="972" y1="432" y2="486" opacity=".35"/><line x1="1026" x2="1080" y1="432" y2="486" opacity=".31"/><line x1="1080" x2="1134" y1="432" y2="486" opacity=".28"/><line x1="1188" x2="1134" y1="432" y2="486" opacity=".24"/><line x1="1242" x2="1188" y1="432" y2="486" opacity=".21"/><line x1="1242" x2="1296" y1="432" y2="486" opacity=".17"/><line x1="1296" x2="1350" y1="432" y2="486" opacity=".13"/><line x1="1404" x2="1350" y1="432" y2="486" opacity=".1"/><line x1="1458" x2="1404" y1="432" y2="486" opacity=".06"/><line x1="54" x2="0" y1="486" y2="540" opacity="1"/><line x1="108" x2="54" y1="486" y2="540" opacity=".96"/><line x1="162" x2="108" y1="486" y2="540" opacity=".93"/><line x1="162" x2="216" y1="486" y2="540" opacity=".89"/><line x1="216" x2="270" y1="486" y2="540" opacity=".86"/><line x1="324" x2="270" y1="486" y2="540" opacity=".82"/><line x1="324" x2="378" y1="486" y2="540" opacity=".78"/><line x1="432" x2="378" y1="486" y2="540" opacity=".75"/><line x1="486" x2="432" y1="486" y2="540" opacity=".71"/><line x1="486" x2="540" y1="486" y2="540" opacity=".68"/><line x1="594" x2="540" y1="486" y2="540" opacity=".64"/><line x1="648" x2="594" y1="486" y2="540" opacity=".6"/><line x1="702" x2="648" y1="486" y2="540" opacity=".57"/><line x1="702" x2="756" y1="486" y2="540" opacity=".53"/><line x1="756" x2="810" y1="486" y2="540" opacity=".49"/><line x1="810" x2="864" y1="486" y2="540" opacity=".46"/><line x1="864" x2="918" y1="486" y2="540" opacity=".42"/><line x1="972" x2="918" y1="486" y2="540" opacity=".39"/><line x1="972" x2="1026" y1="486" y2="540" opacity=".35"/><line x1="1080" x2="1026" y1="486" y2="540" opacity=".31"/><line x1="1080" x2="1134" y1="486" y2="540" opacity=".28"/><line x1="1188" x2="1134" y1="486" y2="540" opacity=".24"/><line x1="1188" x2="1242" y1="486" y2="540" opacity=".21"/><line x1="1296" x2="1242" y1="486" y2="540" opacity=".17"/><line x1="1350" x2="1296" y1="486" y2="540" opacity=".13"/><line x1="1350" x2="1404" y1="486" y2="540" opacity=".1"/><line x1="1458" x2="1404" y1="486" y2="540" opacity=".06"/><line x1="0" x2="54" y1="540" y2="594" opacity="1"/><line x1="108" x2="54" y1="540" y2="594" opacity=".96"/><line x1="108" x2="162" y1="540" y2="594" opacity=".93"/><line x1="162" x2="216" y1="540" y2="594" opacity=".89"/><line x1="216" x2="270" y1="540" y2="594" opacity=".86"/><line x1="324" x2="270" y1="540" y2="594" opacity=".82"/><line x1="378" x2="324" y1="540" y2="594" opacity=".78"/><line x1="378" x2="432" y1="540" y2="594" opacity=".75"/><line x1="432" x2="486" y1="540" y2="594" opacity=".71"/><line x1="540" x2="486" y1="540" y2="594" opacity=".68"/><line x1="594" x2="540" y1="540" y2="594" opacity=".64"/><line x1="594" x2="648" y1="540" y2="594" opacity=".6"/><line x1="702" x2="648" y1="540" y2="594" opacity=".57"/><line x1="702" x2="756" y1="540" y2="594" opacity=".53"/><line x1="756" x2="810" y1="540" y2="594" opacity=".49"/><line x1="810" x2="864" y1="540" y2="594" opacity=".46"/><line x1="918" x2="864" y1="540" y2="594" opacity=".42"/><line x1="918" x2="972" y1="540" y2="594" opacity=".39"/><line x1="1026" x2="972" y1="540" y2="594" opacity=".35"/><line x1="1026" x2="1080" y1="540" y2="594" opacity=".31"/><line x1="1080" x2="1134" y1="540" y2="594" opacity=".28"/><line x1="1188" x2="1134" y1="540" y2="594" opacity=".24"/><line x1="1242" x2="1188" y1="540" y2="594" opacity=".21"/><line x1="1296" x2="1242" y1="540" y2="594" opacity=".17"/><line x1="1350" x2="1296" y1="540" y2="594" opacity=".13"/><line x1="1350" x2="1404" y1="540" y2="594" opacity=".1"/><line x1="1404" x2="1458" y1="540" y2="594" opacity=".06"/><line x1="0" x2="54" y1="594" y2="648" opacity="1"/><line x1="54" x2="108" y1="594" y2="648" opacity=".96"/><line x1="108" x2="162" y1="594" y2="648" opacity=".93"/><line x1="216" x2="162" y1="594" y2="648" opacity=".89"/><line x1="216" x2="270" y1="594" y2="648" opacity=".86"/><line x1="324" x2="270" y1="594" y2="648" opacity=".82"/><line x1="324" x2="378" y1="594" y2="648" opacity=".78"/><line x1="378" x2="432" y1="594" y2="648" opacity=".75"/><line x1="486" x2="432" y1="594" y2="648" opacity=".71"/><line x1="540" x2="486" y1="594" y2="648" opacity=".68"/><line x1="594" x2="540" y1="594" y2="648" opacity=".64"/><line x1="648" x2="594" y1="594" y2="648" opacity=".6"/><line x1="648" x2="702" y1="594" y2="648" opacity=".57"/><line x1="702" x2="756" y1="594" y2="648" opacity=".53"/><line x1="756" x2="810" y1="594" y2="648" opacity=".49"/><line x1="810" x2="864" y1="594" y2="648" opacity=".46"/><line x1="864" x2="918" y1="594" y2="648" opacity=".42"/><line x1="918" x2="972" y1="594" y2="648" opacity=".39"/><line x1="1026" x2="972" y1="594" y2="648" opacity=".35"/><line x1="1026" x2="1080" y1="594" y2="648" opacity=".31"/><line x1="1134" x2="1080" y1="594" y2="648" opacity=".28"/><line x1="1188" x2="1134" y1="594" y2="648" opacity=".24"/><line x1="1188" x2="1242" y1="594" y2="648" opacity=".21"/><line x1="1242" x2="1296" y1="594" y2="648" opacity=".17"/><line x1="1350" x2="1296" y1="594" y2="648" opacity=".13"/><line x1="1404" x2="1350" y1="594" y2="648" opacity=".1"/><line x1="1404" x2="1458" y1="594" y2="648" opacity=".06"/><line x1="0" x2="54" y1="648" y2="702" opacity="1"/><line x1="54" x2="108" y1="648" y2="702" opacity=".96"/><line x1="162" x2="108" y1="648" y2="702" opacity=".93"/><line x1="216" x2="162" y1="648" y2="702" opacity=".89"/><line x1="270" x2="216" y1="648" y2="702" opacity=".86"/><line x1="270" x2="324" y1="648" y2="702" opacity=".82"/><line x1="324" x2="378" y1="648" y2="702" opacity=".78"/><line x1="432" x2="378" y1="648" y2="702" opacity=".75"/><line x1="486" x2="432" y1="648" y2="702" opacity=".71"/><line x1="540" x2="486" y1="648" y2="702" opacity=".68"/><line x1="540" x2="594" y1="648" y2="702" opacity=".64"/><line x1="648" x2="594" y1="648" y2="702" opacity=".6"/><line x1="702" x2="648" y1="648" y2="702" opacity=".57"/><line x1="702" x2="756" y1="648" y2="702" opacity=".53"/><line x1="756" x2="810" y1="648" y2="702" opacity=".49"/><line x1="864" x2="810" y1="648" y2="702" opacity=".46"/><line x1="918" x2="864" y1="648" y2="702" opacity=".42"/><line x1="918" x2="972" y1="648" y2="702" opacity=".39"/><line x1="972" x2="1026" y1="648" y2="702" opacity=".35"/><line x1="1026" x2="1080" y1="648" y2="702" opacity=".31"/><line x1="1080" x2="1134" y1="648" y2="702" opacity=".28"/><line x1="1188" x2="1134" y1="648" y2="702" opacity=".24"/><line x1="1242" x2="1188" y1="648" y2="702" opacity=".21"/><line x1="1296" x2="1242" y1="648" y2="702" opacity=".17"/><line x1="1296" x2="1350" y1="648" y2="702" opacity=".13"/><line x1="1350" x2="1404" y1="648" y2="702" opacity=".1"/><line x1="1458" x2="1404" y1="648" y2="702" opacity=".06"/><line x1="0" x2="54" y1="702" y2="756" opacity="1"/><line x1="54" x2="108" y1="702" y2="756" opacity=".96"/><line x1="108" x2="162" y1="702" y2="756" opacity=".93"/><line x1="216" x2="162" y1="702" y2="756" opacity=".89"/><line x1="216" x2="270" y1="702" y2="756" opacity=".86"/><line x1="270" x2="324" y1="702" y2="756" opacity=".82"/><line x1="324" x2="378" y1="702" y2="756" opacity=".78"/><line x1="378" x2="432" y1="702" y2="756" opacity=".75"/><line x1="432" x2="486" y1="702" y2="756" opacity=".71"/><line x1="540" x2="486" y1="702" y2="756" opacity=".68"/><line x1="594" x2="540" y1="702" y2="756" opacity=".64"/><line x1="648" x2="594" y1="702" y2="756" opacity=".6"/><line x1="648" x2="702" y1="702" y2="756" opacity=".57"/><line x1="702" x2="756" y1="702" y2="756" opacity=".53"/><line x1="756" x2="810" y1="702" y2="756" opacity=".49"/><line x1="864" x2="810" y1="702" y2="756" opacity=".46"/><line x1="918" x2="864" y1="702" y2="756" opacity=".42"/><line x1="918" x2="972" y1="702" y2="756" opacity=".39"/><line x1="1026" x2="972" y1="702" y2="756" opacity=".35"/><line x1="1080" x2="1026" y1="702" y2="756" opacity=".31"/><line x1="1134" x2="1080" y1="702" y2="756" opacity=".28"/><line x1="1188" x2="1134" y1="702" y2="756" opacity=".24"/><line x1="1242" x2="1188" y1="702" y2="756" opacity=".21"/><line x1="1242" x2="1296" y1="702" y2="756" opacity=".17"/><line x1="1296" x2="1350" y1="702" y2="756" opacity=".13"/><line x1="1404" x2="1350" y1="702" y2="756" opacity=".1"/><line x1="1458" x2="1404" y1="702" y2="756" opacity=".06"/><line x1="54" x2="0" y1="756" y2="810" opacity="1"/><line x1="54" x2="108" y1="756" y2="810" opacity=".96"/><line x1="162" x2="108" y1="756" y2="810" opacity=".93"/><line x1="216" x2="162" y1="756" y2="810" opacity=".89"/><line x1="270" x2="216" y1="756" y2="810" opacity=".86"/><line x1="270" x2="324" y1="756" y2="810" opacity=".82"/><line x1="324" x2="378" y1="756" y2="810" opacity=".78"/><line x1="378" x2="432" y1="756" y2="810" opacity=".75"/><line x1="486" x2="432" y1="756" y2="810" opacity=".71"/><line x1="540" x2="486" y1="756" y2="810" opacity=".68"/><line x1="540" x2="594" y1="756" y2="810" opacity=".64"/><line x1="594" x2="648" y1="756" y2="810" opacity=".6"/><line x1="702" x2="648" y1="756" y2="810" opacity=".57"/><line x1="756" x2="702" y1="756" y2="810" opacity=".53"/><line x1="756" x2="810" y1="756" y2="810" opacity=".49"/><line x1="864" x2="810" y1="756" y2="810" opacity=".46"/><line x1="918" x2="864" y1="756" y2="810" opacity=".42"/><line x1="918" x2="972" y1="756" y2="810" opacity=".39"/><line x1="1026" x2="972" y1="756" y2="810" opacity=".35"/><line x1="1026" x2="1080" y1="756" y2="810" opacity=".31"/><line x1="1080" x2="1134" y1="756" y2="810" opacity=".28"/><line x1="1188" x2="1134" y1="756" y2="810" opacity=".24"/><line x1="1242" x2="1188" y1="756" y2="810" opacity=".21"/><line x1="1242" x2="1296" y1="756" y2="810" opacity=".17"/><line x1="1296" x2="1350" y1="756" y2="810" opacity=".13"/><line x1="1404" x2="1350" y1="756" y2="810" opacity=".1"/><line x1="1404" x2="1458" y1="756" y2="810" opacity=".06"/></g></svg>